<?xml version="1.0" encoding="utf-8"?>
<!-- Generator: Adobe Illustrator 26.5.0, SVG Export Plug-In . SVG Version: 6.00 Build 0)  -->
<svg version="1.1" xmlns="http://www.w3.org/2000/svg" xmlns:xlink="http://www.w3.org/1999/xlink" x="0px" y="0px"
	 viewBox="0 0 805 600" style="enable-background:new 0 0 805 600;" xml:space="preserve">
<style type="text/css">
	.st0{fill:#FFFFFF;}
	.st1{fill:#D19134;}
	.st2{fill:#915C00;}
	.st3{fill:#D1A464;}
	.st4{fill:#C27B00;}
	.st5{fill:#D1BC9F;}
	.st6{fill:#E39000;}
	.st7{enable-background:new    ;}
</style>
<g id="Capa_1">
	<rect id="backgorund" class="st0" width="805" height="600"/>
	<g id="viz" transform="translate(402.5,300)">
		<path class="st1" d="M1-143c79,0.6,142.5,65,142,144S78,143.5-1,143c-46.7-0.3-90.3-23.4-116.8-61.9l58.4-39.6
			c22.9,32.8,68.1,40.9,101,17.9s40.9-68.1,17.9-101C46.1-60.6,24.3-72.2,1-72.5V-143z"/>
		<path class="st2" d="M-118.9,79.4c-43.9-65.7-26.2-154.5,39.5-198.3C-56.2-134.4-28.9-142.8-1-143v70.5C-41-71.9-73-39-72.5,1
			c0.2,13.8,4.3,27.3,11.9,38.9L-118.9,79.4z"/>
		<path class="st3" d="M1-215.5C120-214.9,216-118,215.5,1c-0.3,58.5-24.3,114.3-66.6,154.8l-48.5-51.2
			c57.8-55.5,59.6-147.3,4.1-205C77.5-128.7,40.1-144.7,1-145V-215.5z"/>
		<path class="st3" d="M147.5,157.1C89.8,211.2,7.2,229.4-67.9,204.5l22.5-66.8C5,154.3,60.3,142.1,99,106L147.5,157.1z"/>
		<path class="st3" d="M-69.8,203.9c-43.9-15-81.8-43.8-108-82.1l58.4-39.6c17.6,25.5,42.9,44.8,72.2,54.9L-69.8,203.9z"/>
		<path class="st4" d="M-178.9,120.1c-8.3-12.4-15.3-25.6-20.9-39.4l65.5-26.1c3.7,9.1,8.3,17.8,13.8,25.9L-178.9,120.1z"/>
		<path class="st4" d="M-200.6,78.8c-22.9-58.2-19.3-123.5,9.7-178.9l62.3,33c-19.4,37.1-21.7,80.8-6.5,119.8L-200.6,78.8z"/>
		<path class="st4" d="M-189.9-101.8C-152.6-171.5-80.1-215.1-1-215.5v70.5c-53,0.4-101.5,29.6-126.6,76.2L-189.9-101.8z"/>
		<path class="st5" d="M1-288c20.2,0.1,40.2,2.3,59.9,6.5l-15.2,68.9c-14.7-3.2-29.7-4.8-44.8-4.9V-288z"/>
		<path class="st5" d="M62.9-281.1c19.7,4.4,38.8,10.9,57.1,19.3l-29.6,64c-13.7-6.3-28-11.1-42.7-14.4L62.9-281.1z"/>
		<path class="st5" d="M121.8-261c18.3,8.5,35.6,18.9,51.7,31.1l-42.7,56.1c-12-9.1-25-16.8-38.6-23.2L121.8-261z"/>
		<path class="st5" d="M175.1-228.7c16,12.3,30.7,26.1,43.8,41.5l-53.7,45.6c-9.8-11.4-20.8-21.8-32.7-31L175.1-228.7z"/>
		<path class="st5" d="M220.1-185.7c13,15.4,24.3,32.1,33.8,49.9l-62.3,33c-7.1-13.3-15.6-25.8-25.3-37.3L220.1-185.7z"/>
		<path class="st5" d="M254.9-134c9.4,17.8,16.9,36.6,22.3,56l-67.9,18.9c-4.1-14.5-9.7-28.5-16.7-41.8L254.9-134z"/>
		<path class="st5" d="M277.8-76.1c5.3,19.4,8.6,39.4,9.8,59.5l-70.4,3.8c-0.9-15-3.3-29.9-7.3-44.4L277.8-76.1z"/>
		<path class="st5" d="M287.6-14.6c1,20.1-0.1,40.3-3.3,60.2l-69.6-11.4c2.4-14.9,3.2-29.9,2.4-45L287.6-14.6z"/>
		<path class="st5" d="M284,47.6c-3.3,19.9-8.7,39.3-16.1,58.1l-65.5-26.1c5.5-14,9.5-28.6,12.1-43.4L284,47.6z"/>
		<path class="st5" d="M267.2,107.5c-7.5,18.7-17,36.5-28.2,53.3l-58.4-39.6c8.4-12.5,15.5-25.8,21.1-39.8L267.2,107.5z"/>
		<path class="st5" d="M237.8,162.4c-11.4,16.6-24.4,32-39,45.9l-48.5-51.2c10.9-10.4,20.7-21.9,29.2-34.3L237.8,162.4z"/>
		<path class="st5" d="M197.3,209.8c-14.7,13.8-30.8,26-48,36.5L113,185.8c12.9-7.8,24.9-17,35.9-27.3L197.3,209.8z"/>
		<path class="st5" d="M147.6,247.3c-17.3,10.3-35.6,18.8-54.7,25.3l-22.5-66.8c14.2-4.9,27.9-11.2,40.9-18.9L147.6,247.3z"/>
		<path class="st5" d="M91,273.2c-19.1,6.4-38.9,10.7-58.9,13l-7.6-70.1c15-1.7,29.7-4.9,44-9.7L91,273.2z"/>
		<path class="st5" d="M30.1,286.4c-20,2.1-40.2,2.1-60.3,0l7.6-70.1c15,1.6,30.1,1.6,45,0L30.1,286.4z"/>
		<path class="st5" d="M-32.1,286.2c-20-2.2-39.8-6.6-58.9-13l22.5-66.8c14.3,4.7,29,8,44,9.7L-32.1,286.2z"/>
		<path class="st5" d="M-92.9,272.6c-19.1-6.5-37.4-15-54.7-25.3l36.3-60.4c12.9,7.7,26.6,14,40.9,18.9L-92.9,272.6z"/>
		<path class="st5" d="M-149.3,246.3c-17.2-10.4-33.3-22.7-48-36.5l48.5-51.2c11,10.3,23,19.4,35.9,27.3L-149.3,246.3z"/>
		<path class="st5" d="M-198.8,208.4c-14.6-13.9-27.7-29.3-39-45.9l58.4-39.6c8.5,12.4,18.3,23.9,29.2,34.3L-198.8,208.4z"/>
		<path class="st6" d="M-238.9,160.8c-11.3-16.7-20.7-34.6-28.2-53.3l65.5-26.1c5.6,14,12.7,27.3,21.1,39.8L-238.9,160.8z"/>
		<path class="st6" d="M-267.9,105.7c-7.4-18.7-12.8-38.2-16.1-58.1l69.6-11.4c2.5,14.8,6.5,29.4,12.1,43.4L-267.9,105.7z"/>
		<path class="st6" d="M-284.4,45.6c-3.2-19.9-4.3-40.1-3.3-60.2l70.4,3.8c-0.7,15,0.1,30.1,2.4,45L-284.4,45.6z"/>
		<path class="st6" d="M-287.5-16.6c1.2-20.1,4.4-40.1,9.8-59.5l67.9,18.9c-4,14.5-6.4,29.4-7.3,44.4L-287.5-16.6z"/>
		<path class="st6" d="M-277.2-78c5.5-19.4,12.9-38.2,22.3-56l62.3,33c-7,13.3-12.6,27.4-16.7,41.8L-277.2-78z"/>
		<path class="st6" d="M-254-135.8c9.5-17.8,20.8-34.5,33.8-49.9l53.7,45.6c-9.7,11.5-18.2,24-25.3,37.3L-254-135.8z"/>
		<path class="st6" d="M-218.9-187.2c13.1-15.3,27.8-29.2,43.8-41.5l42.7,56.1c-11.9,9.2-22.9,19.5-32.7,31L-218.9-187.2z"/>
		<path class="st6" d="M-173.5-229.9c16.1-12.1,33.4-22.6,51.7-31.1l29.6,64c-13.6,6.4-26.6,14.2-38.6,23.2L-173.5-229.9z"/>
		<path class="st6" d="M-120-261.8c18.3-8.4,37.5-14.8,57.1-19.3l15.2,68.9c-14.7,3.3-29,8.1-42.7,14.4L-120-261.8z"/>
		<path class="st6" d="M-60.9-281.5c19.7-4.3,39.8-6.4,59.9-6.5v70.5c-15.1,0.1-30.1,1.7-44.8,4.9L-60.9-281.5z"/>
	</g>
	<g id="labels" transform="translate(402.5,300)">
		<g>
			<g class="st7">
				<path d="M80.7,45.6l-1.6,1.5l-0.8-0.4l5.2-4.9l0.9,0.5l-1.1,7l-0.8-0.4l0.4-2.2L80.7,45.6z M83,46l0.3-2
					c0.1-0.5,0.2-0.9,0.3-1.2l0,0c-0.3,0.3-0.6,0.6-0.9,0.9l-1.5,1.4L83,46z"/>
				<path d="M85.7,46.8c0.3-0.5,0.5-0.9,0.7-1.3l0.7,0.4l-0.4,0.9l0,0c0.5-0.5,1.2-0.6,1.7-0.3c0.1,0,0.1,0.1,0.2,0.1l-0.4,0.7
					c-0.1-0.1-0.1-0.1-0.3-0.2c-0.5-0.3-1.2-0.1-1.6,0.4c-0.1,0.1-0.2,0.2-0.2,0.3l-1.2,2.3l-0.8-0.4L85.7,46.8z"/>
				<path d="M89.4,52.6l0.2-0.6l0,0c-0.4,0.2-1,0.3-1.6-0.1c-0.9-0.5-1-1.3-0.7-1.9c0.5-1,1.8-1.1,3.4-0.2l0-0.1
					c0.2-0.3,0.4-1-0.5-1.5c-0.4-0.2-0.9-0.3-1.3-0.3l0.1-0.6c0.5,0,1.1,0.1,1.6,0.4c1.3,0.7,1.2,1.8,0.7,2.6l-0.8,1.6
					c-0.2,0.4-0.4,0.7-0.5,1.1L89.4,52.6z M90.4,50.3c-0.8-0.5-1.9-0.8-2.3,0c-0.3,0.5-0.1,0.9,0.3,1.1c0.6,0.3,1.1,0.1,1.4-0.2
					c0.1-0.1,0.1-0.2,0.2-0.2L90.4,50.3z M92.9,46.6l-1.7,0.7L90.6,47l1.4-0.9L92.9,46.6z"/>
				<path d="M91.2,53.6c0.2-0.3,0.4-0.7,0.6-1.1l2.7-5.2l0.8,0.4l-1.4,2.7l0,0c0.5-0.3,1.2-0.4,1.9,0c1.1,0.6,1.3,1.8,0.6,3.1
					c-0.8,1.5-2.2,1.8-3.1,1.3c-0.6-0.3-1-0.8-1-1.6l0,0l-0.4,0.7L91.2,53.6z M92.9,52.3c-0.1,0.1-0.1,0.2-0.1,0.3
					c-0.1,0.6,0.1,1.2,0.7,1.5c0.8,0.4,1.6,0,2.2-1c0.5-0.9,0.4-1.8-0.4-2.3c-0.5-0.3-1.2-0.2-1.7,0.3c-0.1,0.1-0.2,0.2-0.2,0.3
					L92.9,52.3z"/>
				<path d="M96.3,56.2l2.3-4.3l0.8,0.4l-2.3,4.3L96.3,56.2z M100.1,51.2c-0.1,0.3-0.4,0.4-0.8,0.2C99,51.3,99,51,99.1,50.7
					c0.1-0.3,0.5-0.4,0.7-0.2C100.1,50.6,100.2,50.9,100.1,51.2z"/>
				<path d="M101.5,58.8c-0.3,0-0.8-0.1-1.4-0.4c-1.3-0.7-1.7-2-1-3.3c0.7-1.3,2.1-1.8,3.5-1.1c0.5,0.2,0.8,0.6,1,0.8l-0.5,0.5
					c-0.1-0.2-0.4-0.5-0.8-0.7c-1-0.5-1.9-0.1-2.4,0.8c-0.5,1-0.2,1.9,0.6,2.4c0.4,0.2,0.8,0.3,1.1,0.3L101.5,58.8z"/>
				<path d="M104.7,60.7l0.2-0.6l0,0c-0.4,0.2-1,0.3-1.6-0.1c-0.9-0.5-1-1.3-0.7-1.9c0.5-1,1.8-1.1,3.4-0.2l0-0.1
					c0.2-0.3,0.4-1-0.5-1.5c-0.4-0.2-0.9-0.3-1.3-0.3l0.1-0.6c0.5,0,1.1,0.1,1.6,0.4c1.3,0.7,1.2,1.8,0.7,2.6l-0.8,1.6
					c-0.2,0.4-0.4,0.7-0.5,1.1L104.7,60.7z M105.7,58.4c-0.8-0.5-1.9-0.8-2.3,0c-0.3,0.5-0.1,0.9,0.3,1.1c0.6,0.3,1.1,0.1,1.4-0.2
					c0.1-0.1,0.1-0.2,0.2-0.2L105.7,58.4z"/>
			</g>
		</g>
		<g>
			<g class="st7">
				<path d="M-110.6-61.6c0.4,0.1,1,0.4,1.5,0.7c0.8,0.4,1.3,0.9,1.5,1.4c0.2,0.4,0.1,0.9-0.1,1.4c-0.4,0.8-1.2,1-1.9,0.9l0,0
					c0.4,0.4,0.4,1,0.2,1.7c-0.2,0.9-0.4,1.6-0.4,1.9l-0.8-0.4c0-0.2,0.1-0.8,0.4-1.6c0.3-0.9,0.1-1.4-0.6-1.8l-0.7-0.4l-1.4,2.6
					l-0.8-0.4L-110.6-61.6z M-111.3-58.5l0.8,0.4c0.8,0.4,1.6,0.3,1.9-0.4c0.4-0.8,0-1.4-0.8-1.8c-0.4-0.2-0.6-0.3-0.8-0.3
					L-111.3-58.5z"/>
				<path d="M-104-53.4c-0.8,1.6-2.3,1.7-3.3,1.1c-1.2-0.6-1.6-1.9-0.9-3.3c0.8-1.4,2.1-1.8,3.3-1.1C-103.7-56-103.3-54.7-104-53.4z
					 M-107.4-55.1c-0.5,0.9-0.3,1.9,0.4,2.3c0.7,0.4,1.7,0,2.2-1c0.4-0.7,0.5-1.8-0.4-2.3C-106.1-56.6-107-55.9-107.4-55.1z"/>
				<path d="M-104.2-50.7c0.2-0.3,0.4-0.7,0.6-1.1l2.7-5.2l0.8,0.4l-1.4,2.7l0,0c0.5-0.3,1.2-0.4,1.9,0c1.1,0.6,1.3,1.8,0.6,3.1
					c-0.8,1.5-2.2,1.8-3.1,1.3c-0.6-0.3-1-0.8-1-1.6l0,0l-0.4,0.7L-104.2-50.7z M-102.5-52c-0.1,0.1-0.1,0.2-0.1,0.3
					c-0.1,0.6,0.1,1.2,0.7,1.5c0.8,0.4,1.6,0,2.2-1c0.5-0.9,0.4-1.8-0.4-2.3c-0.5-0.3-1.2-0.2-1.7,0.3c-0.1,0.1-0.2,0.2-0.2,0.3
					L-102.5-52z"/>
				<path d="M-94.9-47.3c-0.2,0.4-0.4,0.8-0.6,1.2l-0.7-0.4l0.3-0.7l0,0c-0.4,0.2-1.1,0.5-1.8,0c-0.7-0.4-1.3-1.2-0.5-2.7l1.3-2.5
					l0.8,0.4l-1.2,2.4c-0.4,0.8-0.5,1.5,0.2,1.9c0.5,0.3,1.1,0.1,1.4-0.2c0.1-0.1,0.2-0.2,0.3-0.4l1.4-2.6l0.8,0.4L-94.9-47.3z"/>
				<path d="M-94-46.3c0.2,0.3,0.5,0.6,0.9,0.8c0.6,0.3,1,0.2,1.2-0.2c0.2-0.4,0.1-0.7-0.4-1.2c-0.6-0.7-0.8-1.3-0.5-1.8
					c0.4-0.7,1.2-1,2.1-0.5c0.4,0.2,0.7,0.5,0.9,0.8l-0.5,0.5c-0.1-0.2-0.3-0.5-0.7-0.7c-0.5-0.2-0.8-0.1-1,0.2
					c-0.2,0.4,0,0.6,0.4,1.2c0.6,0.7,0.8,1.2,0.4,1.9c-0.4,0.8-1.3,1-2.3,0.4c-0.5-0.2-0.8-0.6-1-0.9L-94-46.3z"/>
				<path d="M-86.9-48.6l-0.7,1.2l1.1,0.6l-0.3,0.6l-1.1-0.6l-1.2,2.3c-0.3,0.5-0.3,0.9,0.1,1.1c0.2,0.1,0.4,0.2,0.5,0.2l-0.3,0.6
					c-0.2,0-0.4-0.1-0.8-0.3c-0.4-0.2-0.6-0.5-0.7-0.8c-0.1-0.3,0-0.8,0.3-1.3l1.2-2.3l-0.7-0.4l0.3-0.6l0.7,0.4l0.5-1L-86.9-48.6z"
					/>
				<path d="M-85.5-40.8l0.2-0.6l0,0c-0.4,0.2-1,0.3-1.6-0.1c-0.9-0.5-1-1.3-0.7-1.9c0.5-1,1.8-1.1,3.4-0.2l0-0.1
					c0.2-0.3,0.4-1-0.5-1.5c-0.4-0.2-0.9-0.3-1.3-0.3l0.1-0.6c0.5,0,1.1,0.1,1.6,0.4c1.3,0.7,1.2,1.8,0.7,2.6l-0.8,1.6
					c-0.2,0.4-0.4,0.7-0.5,1.1L-85.5-40.8z M-84.4-43c-0.8-0.5-1.9-0.8-2.3,0c-0.3,0.5-0.1,0.9,0.3,1.1c0.6,0.3,1.1,0.1,1.4-0.2
					c0.1-0.1,0.1-0.2,0.2-0.2L-84.4-43z"/>
			</g>
		</g>
		<g>
			<g class="st7">
				<path d="M152.9-58.9l0.1,2.2l-0.8,0.3l-0.4-7.1l1-0.4l4.6,5.4l-0.9,0.3l-1.5-1.7L152.9-58.9z M154.7-60.3l-1.3-1.6
					c-0.3-0.4-0.5-0.7-0.8-1l0,0c0.1,0.4,0.1,0.8,0.1,1.3l0.1,2.1L154.7-60.3z"/>
				<path d="M157-62c-0.2-0.5-0.3-0.8-0.5-1.2l0.7-0.3l0.3,0.7l0,0c0.1-0.5,0.3-1.1,1.1-1.4c0.6-0.2,1.2-0.1,1.6,0.4l0,0
					c0-0.3,0.1-0.6,0.3-0.8c0.2-0.3,0.4-0.5,0.9-0.7c0.6-0.2,1.6-0.2,2.3,1.4l1.1,2.6l-0.8,0.3l-1-2.5c-0.3-0.9-0.9-1.3-1.5-1
					c-0.5,0.2-0.7,0.7-0.7,1.1c0,0.1,0,0.3,0.1,0.4l1.1,2.8l-0.8,0.3l-1.1-2.7c-0.3-0.7-0.8-1.1-1.4-0.9c-0.5,0.2-0.7,0.8-0.7,1.2
					c0,0.1,0,0.3,0.1,0.4l1.1,2.7l-0.8,0.3L157-62z"/>
				<path d="M165.7-64.1c0.5,1.1,1.3,1.3,2.2,0.9c0.6-0.2,0.9-0.5,1.2-0.7l0.4,0.5c-0.2,0.2-0.7,0.6-1.4,0.9c-1.4,0.5-2.6,0-3.1-1.4
					c-0.5-1.4-0.2-2.7,1.1-3.3c1.5-0.6,2.4,0.5,2.7,1.4c0.1,0.2,0.1,0.3,0.1,0.4L165.7-64.1z M166.5-69.5l-0.6,1.8l-0.6,0.2l0.3-1.7
					L166.5-69.5z M167.8-65.7c-0.2-0.5-0.7-1.2-1.7-0.9c-0.8,0.3-0.9,1.2-0.7,1.8L167.8-65.7z"/>
				<path d="M169.5-66.8c-0.2-0.5-0.4-1-0.6-1.4l0.7-0.3l0.4,0.9l0,0c0-0.7,0.3-1.3,0.9-1.5c0.1,0,0.2-0.1,0.2-0.1l0.3,0.8
					c-0.1,0-0.2,0-0.3,0.1c-0.6,0.2-0.8,0.8-0.7,1.5c0,0.1,0.1,0.3,0.1,0.4l1,2.4l-0.8,0.3L169.5-66.8z"/>
				<path d="M172.3-71c0.1,0.3,0,0.6-0.3,0.7c-0.3,0.1-0.6,0-0.7-0.3c-0.1-0.3,0-0.6,0.3-0.7C171.9-71.5,172.2-71.3,172.3-71z
					 M173.7-64.9l-1.8-4.5l0.8-0.3l1.8,4.5L173.7-64.9z"/>
				<path d="M179-67.2c-0.2,0.2-0.6,0.5-1.2,0.8c-1.4,0.5-2.6,0-3.2-1.4c-0.6-1.4,0-2.8,1.5-3.4c0.5-0.2,1-0.2,1.2-0.2l0.1,0.7
					c-0.2,0-0.6,0-1,0.2c-1,0.4-1.3,1.4-0.9,2.3c0.4,1,1.3,1.4,2.2,1.1c0.5-0.2,0.7-0.4,0.9-0.6L179-67.2z"/>
				<path d="M182.6-68.4l-0.3-0.5l0,0c-0.1,0.4-0.5,1-1.1,1.2c-0.9,0.4-1.6-0.1-1.9-0.7c-0.4-1.1,0.3-2.1,2-2.7l0-0.1
					c-0.1-0.4-0.5-1-1.4-0.6c-0.4,0.2-0.8,0.5-1,0.8l-0.4-0.5c0.3-0.4,0.8-0.8,1.3-1c1.4-0.5,2.1,0.3,2.4,1.2l0.7,1.7
					c0.2,0.4,0.3,0.8,0.5,1L182.6-68.4z M181.5-70.7c-0.9,0.3-1.8,0.9-1.5,1.8c0.2,0.5,0.7,0.6,1.1,0.5c0.6-0.2,0.8-0.8,0.8-1.2
					c0-0.1,0-0.2-0.1-0.3L181.5-70.7z"/>
			</g>
		</g>
		<g>
			<g class="st7">
				<path d="M34.7,166.3l-2.2-0.2l-0.2-0.9l7.1,0.8l0.2,1l-6.1,3.7l-0.2-0.9l1.9-1.2L34.7,166.3z M35.8,168.4l1.8-1.1
					c0.4-0.2,0.8-0.4,1.1-0.6l0,0c-0.4,0-0.8,0-1.3-0.1l-2-0.2L35.8,168.4z M41.3,167.6l-1.4-1l-0.2-0.7l1.3,0.7L41.3,167.6z"/>
				<path d="M33.7,171.8l4.1-0.9l-0.1-0.7l0.7-0.1l0.1,0.7l0.2-0.1c0.7-0.1,1.3-0.1,1.8,0.2c0.4,0.3,0.6,0.7,0.7,1.1
					c0.1,0.3,0.1,0.6,0,0.8l-0.7,0c0-0.1,0-0.3,0-0.6c-0.2-0.7-0.8-0.8-1.6-0.6l-0.3,0.1l0.2,1.1l-0.6,0.1l-0.2-1.1l-4.1,0.9
					L33.7,171.8z"/>
				<path d="M37.6,173.8c0.6-0.1,1-0.2,1.5-0.4l0.2,0.8l-0.9,0.2l0,0c0.7,0.1,1.2,0.5,1.3,1.1c0,0.1,0,0.2,0,0.2l-0.8,0.2
					c0-0.1,0-0.2,0-0.3c-0.1-0.6-0.7-0.9-1.4-0.9c-0.1,0-0.3,0-0.4,0.1l-2.5,0.6l-0.2-0.9L37.6,173.8z"/>
				<path d="M35,177.7l4.7-1l0.2,0.9l-4.7,1L35,177.7z M41.3,177.3c-0.3,0.1-0.6-0.1-0.7-0.4c-0.1-0.3,0.1-0.6,0.4-0.6
					c0.3-0.1,0.6,0.1,0.7,0.4C41.8,177,41.6,177.3,41.3,177.3z"/>
				<path d="M36.4,183.3c-0.2-0.2-0.4-0.7-0.6-1.3c-0.3-1.4,0.5-2.6,1.9-2.9c1.5-0.3,2.7,0.4,3.1,2c0.1,0.5,0.1,1,0,1.2l-0.7,0
					c0.1-0.2,0.1-0.6,0-1.1c-0.2-1.1-1.2-1.5-2.2-1.3c-1.1,0.2-1.6,1.1-1.4,2c0.1,0.5,0.3,0.8,0.5,1L36.4,183.3z"/>
				<path d="M37.1,187l0.6-0.2l0,0c-0.4-0.2-0.9-0.6-1-1.3c-0.2-1,0.4-1.6,1-1.7c1.1-0.3,2,0.6,2.4,2.5l0.1,0
					c0.4-0.1,1.1-0.3,0.9-1.3c-0.1-0.4-0.3-0.9-0.6-1.2l0.5-0.3c0.3,0.3,0.6,0.9,0.8,1.5c0.3,1.4-0.6,2-1.5,2.2l-1.8,0.4
					c-0.4,0.1-0.8,0.2-1.1,0.3L37.1,187z M39.4,186.3c-0.2-0.9-0.6-2-1.5-1.8c-0.6,0.1-0.7,0.6-0.6,1c0.1,0.6,0.6,0.9,1,1
					c0.1,0,0.2,0,0.3,0L39.4,186.3z"/>
			</g>
		</g>
		<g>
			<g class="st7">
				<path d="M-113,151.7l1.3,1.8l-0.5,0.7l-4-5.9l0.6-0.8l6.8,2.2l-0.6,0.7l-2.1-0.7L-113,151.7z M-112.2,149.5l-1.9-0.6
					c-0.4-0.2-0.8-0.3-1.2-0.5l0,0c0.3,0.3,0.5,0.6,0.8,1l1.2,1.7L-112.2,149.5z"/>
				<path d="M-109,148.6c0.3-0.1,0.7-0.4,1-0.7c0.4-0.5,0.3-0.9,0-1.2c-0.3-0.3-0.7-0.2-1.2,0.2c-0.8,0.5-1.4,0.5-1.9,0.2
					c-0.6-0.5-0.7-1.4-0.1-2.2c0.3-0.4,0.7-0.6,1-0.8l0.4,0.6c-0.2,0.1-0.6,0.3-0.8,0.6c-0.3,0.4-0.2,0.8,0,1
					c0.3,0.2,0.6,0.1,1.2-0.2c0.8-0.5,1.3-0.6,1.9-0.1c0.7,0.5,0.8,1.4,0.1,2.3c-0.3,0.4-0.7,0.7-1.1,0.9L-109,148.6z"/>
				<path d="M-110.2,141.3c0.2,0.2,0.3,0.5,0.1,0.8c-0.2,0.3-0.5,0.3-0.8,0.1c-0.2-0.2-0.3-0.5-0.1-0.8
					C-110.8,141.2-110.4,141.1-110.2,141.3z M-105.8,145.8l-3.8-2.9l0.5-0.7l3.8,2.9L-105.8,145.8z"/>
				<path d="M-102.8,141.9l-0.5-0.3l0,0c0.1,0.4,0.1,1.1-0.3,1.6c-0.6,0.8-1.4,0.8-2,0.3c-0.9-0.7-0.8-1.9,0.3-3.4l-0.1-0.1
					c-0.3-0.2-1-0.6-1.6,0.2c-0.3,0.4-0.5,0.8-0.5,1.2l-0.6-0.2c0-0.5,0.3-1,0.6-1.5c0.9-1.2,1.9-0.9,2.7-0.3l1.4,1.1
					c0.3,0.2,0.7,0.5,1,0.6L-102.8,141.9z M-104.9,140.5c-0.6,0.7-1.1,1.7-0.4,2.3c0.5,0.3,0.9,0.2,1.2-0.1c0.4-0.5,0.3-1.1,0.1-1.4
					c-0.1-0.1-0.1-0.1-0.2-0.2L-104.9,140.5z"/>
			</g>
		</g>
		<g>
			<g class="st7">
				<path d="M-172.3,94.4l0.4,2.2l-0.8,0.4l-1.1-7l0.9-0.5l5.2,4.9l-0.8,0.4l-1.6-1.5L-172.3,94.4z M-170.6,92.8l-1.5-1.4
					c-0.3-0.3-0.6-0.6-0.9-0.9l0,0c0.1,0.4,0.2,0.8,0.3,1.2l0.3,2L-170.6,92.8z"/>
				<path d="M-168.5,90.8c-0.2-0.4-0.4-0.8-0.6-1.1l0.7-0.4l0.4,0.7l0,0c0-0.5,0.2-1.1,0.9-1.5c0.6-0.3,1.2-0.2,1.7,0.2l0,0
					c0-0.3,0.1-0.6,0.2-0.8c0.2-0.3,0.4-0.6,0.8-0.8c0.6-0.3,1.6-0.4,2.4,1.1l1.3,2.5l-0.8,0.4l-1.3-2.4c-0.4-0.8-1-1.2-1.6-0.8
					c-0.4,0.2-0.6,0.7-0.6,1.2c0,0.1,0.1,0.3,0.1,0.4l1.4,2.6l-0.8,0.4l-1.4-2.6c-0.4-0.7-0.9-1-1.5-0.7c-0.5,0.3-0.6,0.8-0.6,1.3
					c0,0.1,0.1,0.3,0.1,0.4l1.4,2.6l-0.8,0.4L-168.5,90.8z"/>
				<path d="M-160.1,87.8c0.6,1,1.5,1.1,2.2,0.7c0.6-0.3,0.8-0.6,1.1-0.8l0.4,0.5c-0.2,0.3-0.6,0.7-1.3,1c-1.3,0.7-2.6,0.2-3.2-1
					c-0.7-1.3-0.5-2.7,0.8-3.4c1.4-0.7,2.4,0.3,2.8,1.1c0.1,0.2,0.1,0.3,0.2,0.4L-160.1,87.8z M-159.8,82.4l-0.4,1.8l-0.5,0.3
					l0.1-1.7L-159.8,82.4z M-158.1,86.1c-0.3-0.5-0.9-1.2-1.7-0.7c-0.8,0.4-0.8,1.3-0.5,1.9L-158.1,86.1z"/>
				<path d="M-156.6,84.8c-0.3-0.5-0.5-0.9-0.7-1.3l0.7-0.4l0.5,0.8l0,0c-0.1-0.7,0.2-1.3,0.7-1.6c0.1,0,0.1-0.1,0.2-0.1l0.4,0.7
					c-0.1,0-0.2,0.1-0.3,0.1c-0.5,0.3-0.7,0.9-0.5,1.5c0,0.1,0.1,0.3,0.2,0.4l1.2,2.3l-0.8,0.4L-156.6,84.8z"/>
				<path d="M-154.2,80.2c0.1,0.3,0.1,0.6-0.2,0.7c-0.3,0.1-0.6,0-0.7-0.2c-0.1-0.3-0.1-0.6,0.2-0.7
					C-154.6,79.8-154.3,80-154.2,80.2z M-152.2,86.2l-2.3-4.3l0.8-0.4l2.3,4.3L-152.2,86.2z"/>
				<path d="M-147.1,83.3c-0.2,0.2-0.5,0.6-1.1,0.9c-1.3,0.7-2.6,0.3-3.3-1.1c-0.7-1.3-0.3-2.8,1.1-3.5c0.5-0.2,0.9-0.3,1.2-0.3
					l0.1,0.7c-0.2,0-0.6,0-1,0.3c-1,0.5-1.1,1.5-0.6,2.4c0.5,1,1.5,1.3,2.3,0.8c0.4-0.2,0.7-0.5,0.8-0.7L-147.1,83.3z"/>
				<path d="M-143.8,81.7l-0.4-0.5l0,0c-0.1,0.5-0.4,1-1,1.3c-0.9,0.5-1.6,0.1-2-0.5c-0.5-1,0.1-2.1,1.7-3l0-0.1
					c-0.2-0.3-0.6-0.9-1.5-0.5c-0.4,0.2-0.8,0.5-0.9,0.9l-0.5-0.4c0.2-0.4,0.7-0.8,1.2-1.1c1.3-0.7,2.1,0,2.6,0.9l0.8,1.6
					c0.2,0.4,0.4,0.7,0.6,1L-143.8,81.7z M-145,79.6c-0.9,0.4-1.7,1.1-1.3,1.9c0.3,0.5,0.7,0.6,1.1,0.4c0.6-0.3,0.7-0.8,0.7-1.3
					c0-0.1-0.1-0.2-0.1-0.3L-145,79.6z"/>
			</g>
		</g>
		<g>
			<g class="st7">
				<path d="M-192.4-8.5l-0.8,2.1l-0.9,0l2.7-6.6l1,0.1l1.9,6.9l-0.9-0.1l-0.6-2.2L-192.4-8.5z M-190.2-9.1l-0.6-2
					c-0.1-0.4-0.2-0.9-0.3-1.2l0,0c-0.1,0.4-0.2,0.8-0.4,1.2l-0.8,1.9L-190.2-9.1z M-189.4-14.5l-1.3,1.1l-0.7,0l1-1.1L-189.4-14.5z
					"/>
				<path d="M-187.5-6.2l0.2-4.2l-0.7,0l0-0.7l0.7,0l0-0.2c0-0.7,0.2-1.3,0.7-1.7c0.3-0.3,0.8-0.4,1.2-0.4c0.3,0,0.6,0.1,0.7,0.2
					l-0.2,0.7c-0.1-0.1-0.3-0.1-0.6-0.1c-0.7,0-1,0.6-1,1.4l0,0.3l1.2,0.1l0,0.7l-1.2-0.1l-0.2,4.2L-187.5-6.2z"/>
				<path d="M-184.4-9.3c0-0.6,0-1.1,0-1.5l0.8,0l0,0.9l0,0c0.3-0.6,0.8-1,1.4-1c0.1,0,0.2,0,0.2,0l0,0.8c-0.1,0-0.2,0-0.3,0
					c-0.6,0-1.1,0.4-1.2,1.1c0,0.1,0,0.3-0.1,0.4l-0.1,2.6l-0.9,0L-184.4-9.3z"/>
				<path d="M-181.4-5.8l0.3-4.8l0.9,0l-0.3,4.8L-181.4-5.8z M-180-12c0,0.3-0.2,0.5-0.6,0.5c-0.3,0-0.5-0.3-0.5-0.6
					c0-0.3,0.3-0.5,0.6-0.5C-180.2-12.5-180-12.3-180-12z"/>
				<path d="M-175.6-5.7c-0.2,0.1-0.8,0.2-1.4,0.2c-1.5-0.1-2.4-1.1-2.3-2.6c0.1-1.5,1.2-2.5,2.7-2.4c0.5,0,1,0.2,1.2,0.3l-0.2,0.7
					c-0.2-0.1-0.5-0.3-1-0.3c-1.1-0.1-1.8,0.7-1.8,1.7c-0.1,1.1,0.6,1.8,1.6,1.9c0.5,0,0.8-0.1,1.1-0.2L-175.6-5.7z"/>
				<path d="M-171.9-5.3l0-0.6l0,0c-0.3,0.4-0.8,0.7-1.5,0.6c-1-0.1-1.4-0.8-1.4-1.5c0.1-1.2,1.1-1.8,3-1.6l0-0.1c0-0.4,0-1.1-1-1.2
					c-0.4,0-0.9,0.1-1.3,0.3l-0.2-0.6c0.4-0.2,1-0.4,1.6-0.3c1.5,0.1,1.8,1.1,1.7,2.1l-0.1,1.8c0,0.4,0,0.8,0,1.2L-171.9-5.3z
					 M-171.9-7.8c-0.9-0.1-2,0-2.1,1c0,0.6,0.3,0.9,0.8,0.9c0.6,0,1.1-0.3,1.2-0.7c0-0.1,0.1-0.2,0.1-0.3L-171.9-7.8z"/>
			</g>
		</g>
		<g>
			<g class="st7">
				<path d="M-99.1-161.1l-2.2,0.5l-0.5-0.8l7-1.5l0.5,0.9l-4.6,5.4l-0.5-0.8l1.4-1.7L-99.1-161.1z M-97.4-159.5l1.3-1.6
					c0.3-0.4,0.6-0.6,0.9-0.9l0,0c-0.4,0.1-0.8,0.2-1.2,0.3l-2,0.4L-97.4-159.5z"/>
				<path d="M-97.7-156.3c0,0.3,0.1,0.8,0.3,1.2c0.3,0.5,0.8,0.6,1.1,0.4c0.4-0.2,0.4-0.6,0.3-1.2c-0.2-0.9,0-1.5,0.5-1.8
					c0.7-0.4,1.5-0.2,2.1,0.7c0.3,0.4,0.4,0.9,0.4,1.2l-0.7,0.1c0-0.2,0-0.6-0.3-1c-0.3-0.4-0.7-0.5-1-0.3c-0.3,0.2-0.3,0.5-0.2,1.2
					c0.2,0.9,0,1.5-0.6,1.8c-0.7,0.4-1.6,0.2-2.2-0.8c-0.3-0.5-0.4-0.9-0.4-1.3L-97.7-156.3z"/>
				<path d="M-96.3-152.3l4.1-2.5l0.5,0.8l-4.1,2.5L-96.3-152.3z M-90.5-154.7c-0.3,0.2-0.6,0.1-0.8-0.2c-0.2-0.3-0.1-0.6,0.2-0.7
					c0.3-0.2,0.6-0.1,0.8,0.2C-90.1-155.1-90.2-154.8-90.5-154.7z"/>
				<path d="M-93.7-148l0.5-0.4l0,0c-0.5,0-1-0.3-1.4-0.9c-0.5-0.8-0.2-1.6,0.4-2c1-0.6,2.1,0,3,1.6l0.1-0.1
					c0.3-0.2,0.9-0.7,0.4-1.5c-0.2-0.4-0.6-0.7-1-0.9l0.4-0.5c0.4,0.2,0.9,0.6,1.2,1.1c0.8,1.3,0.1,2.1-0.7,2.6l-1.5,0.9
					c-0.4,0.2-0.7,0.4-1,0.7L-93.7-148z M-91.7-149.4c-0.5-0.8-1.2-1.7-2-1.2c-0.5,0.3-0.5,0.8-0.3,1.1c0.3,0.5,0.9,0.7,1.3,0.6
					c0.1,0,0.2-0.1,0.3-0.1L-91.7-149.4z"/>
			</g>
		</g>
		<g>
			<g class="st7">
				<path d="M23.3-238.7c0-0.4,0-1,0-1.6c0.1-0.9,0.3-1.4,0.7-1.8c0.3-0.3,0.7-0.5,1.2-0.4c0.6,0.1,1.2,0.6,1.3,1.3l0,0
					c0.2-0.6,0.8-1.3,1.8-1.2c0.6,0.1,1,0.3,1.3,0.7c0.4,0.5,0.5,1.3,0.4,2.4c-0.1,0.6-0.2,1-0.2,1.3L23.3-238.7z M26.1-239.2
					l0.1-0.8c0.1-0.9-0.3-1.5-1-1.6c-0.8-0.1-1.2,0.5-1.2,1.3c0,0.4,0,0.6,0,0.8L26.1-239.2z M29.3-238.9c0.1-0.2,0.1-0.4,0.1-0.7
					c0.1-0.9-0.1-1.8-1.1-1.9c-0.9-0.1-1.4,0.6-1.5,1.6l-0.1,0.7L29.3-238.9z"/>
				<path d="M28.5-247.9c1.8,0.2,2.4,1.5,2.3,2.7c-0.1,1.3-1.2,2.2-2.7,2c-1.6-0.2-2.4-1.3-2.3-2.7C25.9-247.3,27-248.1,28.5-247.9z
					 M28.1-244.1c1.1,0.1,1.9-0.4,2-1.3c0.1-0.8-0.6-1.5-1.7-1.7c-0.8-0.1-1.9,0.2-2,1.2C26.3-244.8,27.2-244.2,28.1-244.1z"/>
				<path d="M24-249.5l0.1-0.9l7.1,0.8l-0.1,0.9L24-249.5z"/>
				<path d="M25.3-252.8c0.3,0,0.5,0.3,0.5,0.6c0,0.3-0.3,0.5-0.6,0.5c-0.3,0-0.5-0.3-0.5-0.6C24.7-252.6,25-252.8,25.3-252.8z
					 M31.3-251.1l-4.8-0.5l0.1-0.9l4.8,0.5L31.3-251.1z"/>
				<path d="M26.8-254.3l2.8-0.6c0.5-0.1,0.9-0.2,1.3-0.3l0,0c-0.4-0.2-0.8-0.3-1.2-0.5l-2.6-1.2l0.1-0.9l4.6,2.4l-0.1,0.8l-5,1.3
					L26.8-254.3z"/>
				<path d="M26-259.9c0.3,0,0.5,0.3,0.5,0.6c0,0.3-0.3,0.5-0.6,0.5c-0.3,0-0.5-0.3-0.5-0.6C25.5-259.7,25.7-259.9,26-259.9z
					 M32.1-258.2l-4.8-0.5l0.1-0.9l4.8,0.5L32.1-258.2z"/>
				<path d="M32.6-263.2l-0.6,0l0,0c0.3,0.3,0.6,0.9,0.6,1.5c-0.1,1-0.8,1.4-1.5,1.3c-1.2-0.1-1.7-1.2-1.5-3.1l-0.1,0
					c-0.4,0-1.1,0-1.2,1c0,0.4,0,0.9,0.2,1.3l-0.6,0.1c-0.2-0.4-0.3-1-0.2-1.6c0.2-1.5,1.2-1.7,2.2-1.6l1.8,0.2
					c0.4,0,0.8,0.1,1.2,0.1L32.6-263.2z M30.2-263.3c-0.1,0.9-0.1,2,0.9,2.1c0.6,0.1,0.9-0.3,0.9-0.7c0.1-0.6-0.3-1.1-0.7-1.3
					c-0.1,0-0.2-0.1-0.3-0.1L30.2-263.3z"/>
			</g>
		</g>
		<g>
			<g class="st7">
				<path d="M79.6-224.4c0.1,0.3,0,1-0.3,1.8c-0.6,1.8-2.2,2.8-4.3,2.1c-2-0.7-2.9-2.5-2.2-4.5c0.3-0.8,0.6-1.2,0.8-1.4l0.6,0.4
					c-0.3,0.3-0.5,0.7-0.7,1.2c-0.5,1.5,0.1,2.8,1.8,3.4c1.6,0.5,2.9,0,3.4-1.6c0.2-0.5,0.2-1.1,0.2-1.4L79.6-224.4z"/>
				<path d="M79.2-230.3c1.7,0.6,2,2,1.7,3.1c-0.4,1.2-1.6,1.9-3.1,1.4c-1.5-0.5-2.1-1.8-1.7-3.1C76.6-230.2,77.8-230.8,79.2-230.3z
					 M78-226.6c1,0.3,2,0,2.2-0.8c0.3-0.8-0.3-1.6-1.3-2c-0.8-0.3-1.9-0.2-2.2,0.8C76.4-227.7,77.2-226.9,78-226.6z"/>
				<path d="M75.2-232.8l0.3-0.8l6.7,2.3l-0.3,0.8L75.2-232.8z"/>
				<path d="M81.7-237.7c1.7,0.6,2,2,1.7,3.1c-0.4,1.2-1.6,1.9-3.1,1.4c-1.5-0.5-2.1-1.8-1.7-3.1C79.1-237.6,80.3-238.2,81.7-237.7z
					 M80.6-234.1c1,0.3,2,0,2.2-0.8c0.3-0.8-0.3-1.6-1.3-2c-0.8-0.3-1.9-0.2-2.2,0.8C78.9-235.1,79.7-234.4,80.6-234.1z"/>
				<path d="M81.1-239.1c-0.5-0.2-0.9-0.3-1.2-0.4l0.2-0.7l0.8,0.2l0,0c-0.3-0.4-0.6-1-0.4-1.7c0.2-0.6,0.7-1,1.4-1l0,0
					c-0.2-0.2-0.3-0.5-0.4-0.7c-0.1-0.3-0.1-0.7,0-1.1c0.2-0.6,0.9-1.4,2.5-0.8l2.7,0.9l-0.3,0.8l-2.6-0.9c-0.9-0.3-1.5-0.1-1.7,0.5
					c-0.2,0.5,0.1,1,0.4,1.2c0.1,0.1,0.2,0.2,0.4,0.2l2.8,1l-0.3,0.8l-2.7-0.9c-0.7-0.2-1.4-0.1-1.6,0.5c-0.2,0.5,0.1,1,0.5,1.3
					c0.1,0.1,0.2,0.2,0.4,0.2l2.8,0.9l-0.3,0.8L81.1-239.1z"/>
				<path d="M87.1-245.9c-0.3-0.1-0.8-0.3-1.2-0.4l-5.5-1.9l0.3-0.8l2.9,1l0,0c-0.4-0.5-0.6-1.1-0.3-1.8c0.4-1.1,1.6-1.6,3-1.1
					c1.6,0.6,2.1,1.9,1.8,2.9c-0.2,0.7-0.7,1.1-1.4,1.2l0,0l0.7,0.3L87.1-245.9z M85.5-247.4c0.1,0,0.2,0.1,0.3,0.1
					c0.6,0,1.2-0.3,1.4-0.9c0.3-0.9-0.2-1.6-1.3-2c-0.9-0.3-1.9-0.1-2.2,0.8c-0.2,0.6,0,1.2,0.6,1.6c0.1,0.1,0.2,0.1,0.3,0.2
					L85.5-247.4z"/>
				<path d="M83.3-254.2c0.3,0.1,0.5,0.4,0.3,0.7c-0.1,0.3-0.4,0.4-0.7,0.3c-0.3-0.1-0.4-0.4-0.3-0.7
					C82.7-254.2,83-254.3,83.3-254.2z M88.9-251.3l-4.6-1.5l0.3-0.8l4.6,1.5L88.9-251.3z"/>
				<path d="M90.5-256.1l-0.6-0.1l0,0c0.3,0.4,0.4,1,0.2,1.6c-0.3,0.9-1.1,1.2-1.8,1c-1.1-0.4-1.4-1.6-0.8-3.3l-0.1,0
					c-0.4-0.1-1.1-0.3-1.4,0.7c-0.1,0.4-0.2,0.9-0.1,1.3l-0.6,0c-0.1-0.5-0.1-1.1,0.1-1.6c0.5-1.4,1.5-1.4,2.5-1.1l1.7,0.6
					c0.4,0.1,0.8,0.2,1.1,0.3L90.5-256.1z M88.1-256.7c-0.3,0.9-0.5,2,0.4,2.3c0.5,0.2,0.9-0.1,1.1-0.5c0.2-0.6,0-1.1-0.4-1.4
					c-0.1-0.1-0.2-0.1-0.2-0.1L88.1-256.7z"/>
			</g>
		</g>
		<g>
			<g class="st7">
				<path d="M124.3-199.2c0,0.4-0.2,1-0.6,1.7c-1,1.6-2.7,2.2-4.6,1.1c-1.8-1.1-2.3-3-1.2-4.8c0.4-0.7,0.9-1.1,1.1-1.2l0.5,0.5
					c-0.3,0.2-0.6,0.5-0.9,1c-0.8,1.4-0.5,2.8,1,3.7c1.4,0.9,2.8,0.6,3.6-0.8c0.3-0.5,0.5-1,0.5-1.4L124.3-199.2z"/>
				<path d="M125.2-205c1.5,0.9,1.6,2.4,1,3.4c-0.7,1.1-2,1.5-3.3,0.7c-1.4-0.8-1.6-2.2-1-3.4C122.5-205.5,123.9-205.8,125.2-205z
					 M123.2-201.7c0.9,0.5,1.9,0.4,2.3-0.3c0.4-0.7,0.1-1.7-0.9-2.2c-0.7-0.4-1.8-0.6-2.3,0.3C121.8-203.1,122.4-202.2,123.2-201.7z
					"/>
				<path d="M127-205.1c0.3-0.1,0.7-0.4,0.9-0.8c0.3-0.5,0.2-1-0.1-1.2c-0.4-0.2-0.7-0.1-1.2,0.3c-0.7,0.6-1.3,0.7-1.8,0.4
					c-0.7-0.4-0.9-1.3-0.4-2.2c0.3-0.4,0.6-0.7,0.9-0.9l0.4,0.5c-0.2,0.1-0.5,0.3-0.8,0.7c-0.3,0.4-0.2,0.8,0.2,1
					c0.3,0.2,0.6,0.1,1.2-0.4c0.7-0.6,1.3-0.7,1.9-0.3c0.7,0.4,0.9,1.3,0.3,2.3c-0.3,0.5-0.6,0.8-1,1L127-205.1z"/>
				<path d="M125.1-212.2l1.2,0.7l0.7-1.1l0.6,0.3l-0.7,1.1l2.2,1.3c0.5,0.3,0.9,0.3,1.2-0.1c0.1-0.2,0.2-0.4,0.2-0.5l0.6,0.3
					c0,0.2-0.1,0.4-0.3,0.7c-0.2,0.3-0.5,0.6-0.8,0.6c-0.4,0.1-0.8-0.1-1.3-0.4l-2.3-1.4l-0.4,0.6l-0.6-0.3l0.4-0.6l-1-0.6
					L125.1-212.2z"/>
				<path d="M133-213.2l-0.6-0.2l0,0c0.2,0.4,0.2,1-0.1,1.6c-0.5,0.8-1.4,0.9-2,0.6c-1-0.6-1-1.8,0-3.4l-0.1-0.1
					c-0.3-0.2-1-0.5-1.5,0.4c-0.2,0.4-0.4,0.9-0.3,1.3l-0.6-0.1c0-0.5,0.1-1.1,0.5-1.6c0.8-1.3,1.8-1.1,2.6-0.6l1.5,0.9
					c0.4,0.2,0.7,0.4,1,0.5L133-213.2z M130.8-214.4c-0.5,0.8-0.9,1.8-0.1,2.3c0.5,0.3,0.9,0.1,1.1-0.3c0.3-0.5,0.2-1.1-0.1-1.4
					c-0.1-0.1-0.1-0.1-0.2-0.2L130.8-214.4z"/>
				<path d="M129.5-220.3c0.2-0.4,0.4-1,0.7-1.5c0.5-0.8,0.9-1.2,1.5-1.4c0.4-0.1,0.9-0.1,1.4,0.2c0.8,0.5,1,1.2,0.8,2l0,0
					c0.4-0.3,1-0.4,1.7-0.1c0.9,0.3,1.6,0.5,1.9,0.5l-0.5,0.8c-0.2,0-0.8-0.2-1.6-0.5c-0.9-0.3-1.4-0.2-1.8,0.5l-0.4,0.7l2.5,1.5
					l-0.4,0.7L129.5-220.3z M132.6-219.5l0.5-0.8c0.5-0.8,0.3-1.6-0.3-2c-0.7-0.5-1.4-0.1-1.9,0.7c-0.2,0.4-0.3,0.6-0.4,0.8
					L132.6-219.5z"/>
				<path d="M133.1-225.5c0.3,0.2,0.4,0.5,0.2,0.8c-0.2,0.3-0.5,0.3-0.7,0.2c-0.3-0.2-0.4-0.5-0.2-0.8
					C132.6-225.6,132.9-225.7,133.1-225.5z M137.9-221.5l-4.1-2.5l0.5-0.7l4.1,2.5L137.9-221.5z"/>
				<path d="M140.8-226.5c0,0.3-0.1,0.8-0.5,1.3c-0.8,1.2-2.1,1.6-3.4,0.8c-1.3-0.8-1.7-2.2-0.9-3.6c0.3-0.4,0.6-0.8,0.8-0.9
					l0.5,0.5c-0.2,0.1-0.5,0.3-0.7,0.8c-0.6,0.9-0.2,1.9,0.7,2.4c1,0.6,1.9,0.3,2.4-0.5c0.3-0.4,0.3-0.8,0.4-1L140.8-226.5z"/>
				<path d="M142.8-229.6l-0.6-0.2l0,0c0.2,0.4,0.2,1-0.1,1.6c-0.5,0.8-1.4,0.9-1.9,0.5c-1-0.6-1-1.8,0-3.4l-0.1-0.1
					c-0.3-0.2-1-0.5-1.5,0.4c-0.2,0.4-0.4,0.9-0.3,1.3l-0.6-0.1c0-0.5,0.1-1.1,0.5-1.6c0.8-1.3,1.8-1.1,2.6-0.6l1.5,0.9
					c0.4,0.2,0.7,0.4,1,0.5L142.8-229.6z M140.7-230.8c-0.5,0.8-0.9,1.8-0.1,2.3c0.5,0.3,0.9,0.1,1.1-0.3c0.3-0.5,0.2-1.1-0.1-1.4
					c-0.1-0.1-0.1-0.1-0.2-0.2L140.7-230.8z"/>
			</g>
		</g>
		<g>
			<g class="st7">
				<path d="M165.2-173.2l-1.8,1.9l1.8,1.7l2-2.1l0.5,0.5l-2.6,2.8l-4.9-4.6l2.5-2.6l0.5,0.5l-1.9,2l1.5,1.5l1.8-1.9L165.2-173.2z"
					/>
				<path d="M170.7-174.7c-0.1,0.2-0.3,0.7-0.8,1.2c-1,1.1-2.4,1.1-3.5,0.1c-1.1-1-1.2-2.5-0.1-3.7c0.4-0.4,0.8-0.6,1-0.7l0.4,0.6
					c-0.2,0.1-0.5,0.2-0.9,0.6c-0.8,0.8-0.6,1.8,0.2,2.5c0.8,0.8,1.8,0.7,2.5,0c0.3-0.4,0.5-0.7,0.6-0.9L170.7-174.7z"/>
				<path d="M173.4-179.1c0.4,0.3,0.7,0.6,1,0.9l-0.5,0.6l-0.6-0.5l0,0c0.1,0.4,0.1,1.2-0.4,1.8c-0.5,0.5-1.5,0.9-2.7-0.2l-2.1-1.9
					l0.6-0.6l1.9,1.8c0.7,0.6,1.3,0.9,1.9,0.3c0.4-0.4,0.4-1,0.2-1.4c-0.1-0.1-0.2-0.3-0.3-0.4l-2.1-2l0.6-0.6L173.4-179.1z"/>
				<path d="M177.2-181.3l-0.5-0.4l0,0c0.1,0.5,0,1.1-0.5,1.6c-0.7,0.7-1.5,0.6-2,0.1c-0.8-0.8-0.6-2,0.7-3.3l-0.1-0.1
					c-0.3-0.3-0.9-0.7-1.6,0c-0.3,0.3-0.5,0.8-0.6,1.2l-0.6-0.3c0.1-0.5,0.4-1,0.8-1.4c1-1.1,2-0.6,2.7,0l1.3,1.2
					c0.3,0.3,0.6,0.6,0.9,0.7L177.2-181.3z M175.3-182.8c-0.7,0.7-1.3,1.6-0.6,2.2c0.4,0.4,0.9,0.3,1.2,0c0.4-0.5,0.4-1,0.2-1.4
					c0-0.1-0.1-0.2-0.2-0.2L175.3-182.8z"/>
				<path d="M176.4-190.7l4.2,4c0.3,0.3,0.7,0.6,0.9,0.8l-0.5,0.6l-0.6-0.5l0,0c0.2,0.6,0.1,1.3-0.4,1.8c-0.8,0.9-2.1,0.8-3.2-0.2
					c-1.2-1.1-1.2-2.5-0.4-3.4c0.5-0.5,1.1-0.7,1.5-0.6l0,0l-2.1-2L176.4-190.7z M178.9-187.2c-0.1-0.1-0.2-0.2-0.3-0.2
					c-0.5-0.3-1.2-0.3-1.6,0.2c-0.6,0.7-0.4,1.6,0.3,2.3c0.7,0.7,1.6,0.9,2.3,0.2c0.4-0.4,0.5-1.1,0.1-1.7c-0.1-0.1-0.1-0.2-0.2-0.3
					L178.9-187.2z"/>
				<path d="M183.8-191.8c1.3,1.2,1,2.7,0.2,3.5c-0.9,1-2.3,1-3.4,0c-1.2-1.1-1.1-2.5-0.2-3.5C181.3-192.8,182.7-192.8,183.8-191.8z
					 M181.2-188.9c0.8,0.7,1.8,0.8,2.4,0.2c0.6-0.6,0.4-1.6-0.4-2.4c-0.6-0.6-1.6-1-2.3-0.2C180.1-190.6,180.5-189.6,181.2-188.9z"
					/>
				<path d="M183.9-193.2c-0.4-0.4-0.8-0.7-1.1-1l0.5-0.6l0.7,0.6l0,0c-0.3-0.6-0.2-1.3,0.2-1.7c0.1-0.1,0.1-0.1,0.2-0.2l0.6,0.6
					c-0.1,0.1-0.1,0.1-0.2,0.2c-0.4,0.4-0.4,1.1,0,1.6c0.1,0.1,0.2,0.2,0.3,0.3l1.9,1.8l-0.6,0.6L183.9-193.2z"/>
			</g>
		</g>
		<g>
			<g class="st7">
				<path d="M192.8-129.7l-2.2,1.5l1.4,2l2.4-1.6l0.4,0.6l-3.1,2.1l-3.8-5.6l3-2l0.4,0.6l-2.3,1.6l1.2,1.8l2.2-1.5L192.8-129.7z"/>
				<path d="M191.8-133.8l0.7-0.5l4,5.9l-0.7,0.5L191.8-133.8z"/>
				<path d="M198.8-131.3c0.5,0,1-0.2,1.5-0.5c0.7-0.5,0.9-1.2,0.5-1.7c-0.3-0.5-0.9-0.6-1.8-0.4c-1.1,0.3-2,0.2-2.5-0.6
					c-0.6-0.9-0.3-2,0.8-2.7c0.6-0.4,1.1-0.5,1.4-0.6l0.2,0.7c-0.2,0-0.7,0.1-1.2,0.4c-0.8,0.5-0.7,1.2-0.5,1.5
					c0.4,0.5,0.9,0.5,1.8,0.3c1.2-0.3,2-0.1,2.5,0.7c0.6,0.9,0.5,2-0.9,2.9c-0.5,0.4-1.2,0.6-1.7,0.6L198.8-131.3z"/>
				<path d="M205.8-134.7l-0.4-0.5l0,0c0,0.5-0.2,1-0.8,1.4c-0.8,0.5-1.6,0.3-2-0.3c-0.7-1-0.2-2.1,1.4-3.1l-0.1-0.1
					c-0.2-0.3-0.7-0.9-1.5-0.3c-0.4,0.3-0.7,0.6-0.8,1l-0.5-0.4c0.2-0.4,0.6-0.9,1.1-1.2c1.2-0.8,2.1-0.2,2.6,0.6l1,1.5
					c0.2,0.3,0.5,0.7,0.7,0.9L205.8-134.7z M204.3-136.7c-0.8,0.5-1.6,1.3-1.1,2c0.3,0.5,0.8,0.5,1.2,0.2c0.5-0.4,0.6-0.9,0.5-1.3
					c0-0.1-0.1-0.2-0.1-0.3L204.3-136.7z"/>
				<path d="M203.6-141.8l0.7-0.5l4,5.9l-0.7,0.5L203.6-141.8z"/>
				<path d="M207.1-141.4l2.3,1.7c0.4,0.3,0.7,0.5,1,0.8l0,0c-0.1-0.4-0.2-0.8-0.4-1.3l-0.7-2.8l0.8-0.5l1.1,5.1l-0.7,0.5l-4.2-3
					L207.1-141.4z"/>
				<path d="M215.7-141.4l-0.4-0.5l0,0c0,0.5-0.2,1-0.8,1.4c-0.8,0.5-1.6,0.3-2-0.3c-0.7-1-0.2-2.1,1.4-3.1l-0.1-0.1
					c-0.2-0.3-0.7-0.9-1.5-0.3c-0.4,0.3-0.7,0.6-0.8,1l-0.5-0.4c0.2-0.4,0.6-0.9,1.1-1.2c1.2-0.8,2.1-0.2,2.6,0.6l1,1.5
					c0.2,0.3,0.5,0.7,0.7,0.9L215.7-141.4z M214.2-143.4c-0.8,0.5-1.6,1.3-1.1,2c0.3,0.5,0.8,0.5,1.2,0.2c0.5-0.4,0.6-0.9,0.5-1.3
					c0-0.1-0.1-0.2-0.1-0.3L214.2-143.4z"/>
				<path d="M217-150.8l3.3,4.8c0.2,0.4,0.5,0.7,0.7,1l-0.6,0.4l-0.5-0.7l0,0c0.1,0.6-0.2,1.3-0.8,1.7c-1,0.7-2.3,0.3-3.1-0.9
					c-0.9-1.3-0.6-2.7,0.3-3.4c0.6-0.4,1.2-0.4,1.6-0.2l0,0l-1.6-2.4L217-150.8z M218.6-146.9c-0.1-0.1-0.2-0.2-0.2-0.3
					c-0.4-0.4-1.1-0.5-1.6-0.1c-0.8,0.5-0.8,1.5-0.2,2.4c0.6,0.8,1.4,1.2,2.2,0.7c0.5-0.3,0.7-1,0.5-1.6c0-0.1-0.1-0.2-0.2-0.3
					L218.6-146.9z"/>
				<path d="M224.4-150.3c1,1.5,0.4,2.8-0.5,3.5c-1.1,0.7-2.5,0.5-3.3-0.8c-0.9-1.3-0.6-2.7,0.5-3.5
					C222.2-151.8,223.6-151.5,224.4-150.3z M221.3-148.1c0.6,0.9,1.5,1.2,2.3,0.7c0.7-0.5,0.8-1.5,0.2-2.4c-0.5-0.7-1.4-1.3-2.2-0.7
					C220.6-149.9,220.7-148.8,221.3-148.1z"/>
				<path d="M224.8-151.6c-0.3-0.5-0.6-0.9-0.9-1.2l0.6-0.4l0.6,0.8l0,0c-0.2-0.7,0-1.3,0.5-1.6c0.1-0.1,0.1-0.1,0.2-0.1l0.5,0.7
					c-0.1,0-0.2,0.1-0.3,0.1c-0.5,0.3-0.6,1-0.3,1.6c0,0.1,0.1,0.2,0.2,0.4l1.4,2.1l-0.7,0.5L224.8-151.6z"/>
			</g>
		</g>
		<g>
			<g class="st7">
				<path d="M219.8-83.6c-0.3,0.3-0.9,0.8-1.8,1.1c-0.9,0.4-1.8,0.5-2.7,0.1c-0.7-0.3-1.4-1-1.8-2c-0.7-1.9,0-3.7,2.1-4.6
					c0.7-0.3,1.4-0.4,1.7-0.3l0.1,0.7c-0.4,0-0.9,0-1.5,0.3c-1.5,0.6-2.1,1.9-1.5,3.5c0.6,1.6,2,2.1,3.4,1.6c0.5-0.2,0.9-0.4,1-0.6
					l-0.7-1.9l-1.3,0.5l-0.3-0.6l2.1-0.8L219.8-83.6z"/>
				<path d="M224.4-86.5c0.2,0.5,0.4,0.9,0.5,1.2l-0.7,0.3l-0.3-0.7l0,0c-0.1,0.4-0.3,1.1-1.2,1.4c-0.7,0.3-1.7,0.2-2.3-1.4l-1-2.6
					l0.8-0.3l1,2.5c0.3,0.9,0.8,1.3,1.6,1c0.5-0.2,0.8-0.8,0.8-1.2c0-0.1,0-0.3-0.1-0.4l-1.1-2.7l0.8-0.3L224.4-86.5z"/>
				<path d="M228.8-86.8l-0.3-0.5l0,0c-0.1,0.4-0.5,1-1.1,1.2c-0.9,0.4-1.6-0.1-1.9-0.7c-0.4-1.1,0.3-2.1,2-2.7l0-0.1
					c-0.1-0.4-0.5-1-1.4-0.6c-0.4,0.2-0.8,0.5-1,0.8l-0.4-0.5c0.3-0.4,0.8-0.8,1.3-1c1.4-0.5,2.1,0.3,2.4,1.2l0.7,1.7
					c0.2,0.4,0.3,0.8,0.5,1L228.8-86.8z M227.7-89.1c-0.9,0.3-1.8,0.9-1.5,1.8c0.2,0.5,0.7,0.6,1.1,0.5c0.6-0.2,0.8-0.8,0.8-1.2
					c0-0.1,0-0.2-0.1-0.3L227.7-89.1z"/>
				<path d="M229.4-93.8l0.5,1.3l1.2-0.5l0.2,0.6l-1.2,0.5l1,2.4c0.2,0.6,0.5,0.8,1,0.6c0.2-0.1,0.4-0.2,0.5-0.2l0.3,0.6
					c-0.1,0.1-0.4,0.3-0.7,0.4c-0.4,0.1-0.7,0.2-1,0c-0.3-0.2-0.6-0.5-0.8-1l-1-2.5l-0.7,0.3l-0.2-0.6l0.7-0.3l-0.4-1.1L229.4-93.8z
					"/>
				<path d="M233.5-91.1c0.5,1.1,1.3,1.3,2.2,0.9c0.6-0.2,0.9-0.5,1.2-0.7l0.4,0.5c-0.2,0.2-0.7,0.6-1.4,0.9c-1.4,0.5-2.6,0-3.1-1.4
					c-0.5-1.4-0.2-2.7,1.1-3.3c1.5-0.6,2.4,0.5,2.7,1.4c0.1,0.2,0.1,0.3,0.1,0.4L233.5-91.1z M235.6-92.7c-0.2-0.5-0.7-1.2-1.7-0.9
					c-0.8,0.3-0.9,1.2-0.7,1.8L235.6-92.7z"/>
				<path d="M237.2-94c-0.2-0.5-0.3-0.8-0.5-1.2l0.7-0.3l0.3,0.7l0,0c0.1-0.5,0.3-1.1,1.1-1.4c0.6-0.2,1.2-0.1,1.6,0.4l0,0
					c0-0.3,0.1-0.6,0.3-0.8c0.2-0.3,0.4-0.5,0.9-0.7c0.6-0.2,1.6-0.2,2.3,1.4l1.1,2.6l-0.8,0.3l-1-2.5c-0.3-0.9-0.9-1.3-1.5-1
					c-0.5,0.2-0.7,0.7-0.7,1.1c0,0.1,0,0.3,0.1,0.4l1.1,2.8l-0.8,0.3l-1.1-2.7c-0.3-0.7-0.8-1.1-1.4-0.9c-0.5,0.2-0.7,0.8-0.7,1.2
					c0,0.1,0,0.3,0.1,0.4l1.1,2.7l-0.8,0.3L237.2-94z"/>
				<path d="M248.7-94.8l-0.3-0.5l0,0c-0.1,0.4-0.5,1-1.1,1.2c-0.9,0.4-1.6-0.1-1.9-0.7c-0.4-1.1,0.3-2.1,2-2.7l0-0.1
					c-0.1-0.4-0.5-1-1.4-0.6c-0.4,0.2-0.8,0.5-1,0.8l-0.4-0.5c0.3-0.4,0.8-0.8,1.3-1c1.4-0.5,2.1,0.3,2.4,1.2l0.7,1.7
					c0.2,0.4,0.3,0.8,0.5,1L248.7-94.8z M247.7-97c-0.9,0.3-1.8,0.9-1.5,1.8c0.2,0.5,0.7,0.6,1.1,0.5c0.6-0.2,0.8-0.8,0.8-1.2
					c0-0.1,0-0.2-0.1-0.3L247.7-97z"/>
				<path d="M248.1-102.2l0.8-0.3l2.6,6.6l-0.8,0.3L248.1-102.2z"/>
				<path d="M255.4-97.5l-0.3-0.5l0,0c-0.1,0.4-0.5,1-1.1,1.2c-0.9,0.4-1.6-0.1-1.9-0.7c-0.4-1.1,0.3-2.1,2-2.7l0-0.1
					c-0.1-0.4-0.5-1-1.4-0.6c-0.4,0.2-0.8,0.5-1,0.8l-0.4-0.5c0.3-0.4,0.8-0.8,1.3-1c1.4-0.5,2.1,0.3,2.4,1.2l0.7,1.7
					c0.2,0.4,0.3,0.8,0.5,1L255.4-97.5z M254.4-99.7c-0.9,0.3-1.8,0.9-1.5,1.8c0.2,0.5,0.7,0.6,1.1,0.5c0.6-0.2,0.8-0.8,0.8-1.2
					c0-0.1,0-0.2-0.1-0.3L254.4-99.7z"/>
			</g>
		</g>
		<g>
			<g class="st7">
				<path d="M233.7-41.1l0.9-0.1l0.7,4.4c0.3,1.8-0.5,2.5-1.6,2.6c-0.3,0.1-0.7,0-0.9,0l0-0.7c0.2,0,0.5,0.1,0.7,0
					c0.8-0.1,1.2-0.5,0.9-1.9L233.7-41.1z"/>
				<path d="M239.7-35.2l-0.2-0.6l0,0c-0.2,0.4-0.7,0.8-1.3,0.9c-1,0.2-1.6-0.4-1.7-1.1c-0.2-1.2,0.7-2,2.6-2.2l0-0.1
					c-0.1-0.4-0.3-1.1-1.3-0.9c-0.4,0.1-0.9,0.3-1.2,0.6l-0.3-0.5c0.4-0.3,0.9-0.6,1.5-0.7c1.5-0.2,2,0.7,2.1,1.7l0.3,1.8
					c0.1,0.4,0.2,0.8,0.3,1.1L239.7-35.2z M239.2-37.7c-0.9,0.1-2,0.5-1.8,1.4c0.1,0.6,0.5,0.8,0.9,0.7c0.6-0.1,1-0.6,1-1
					c0-0.1,0-0.2,0-0.3L239.2-37.7z"/>
				<path d="M241.2-39.1c-0.1-0.5-0.2-0.9-0.3-1.3l0.8-0.1l0.2,0.8l0,0c0.2-0.5,0.6-1,1.4-1.1c0.6-0.1,1.2,0.2,1.5,0.7l0,0
					c0.1-0.3,0.3-0.5,0.4-0.7c0.3-0.3,0.5-0.4,1-0.5c0.6-0.1,1.6,0.2,1.9,1.8l0.5,2.8l-0.8,0.1l-0.4-2.7c-0.2-0.9-0.6-1.4-1.3-1.3
					c-0.5,0.1-0.8,0.5-0.9,1c0,0.1,0,0.3,0,0.4l0.5,3l-0.8,0.1l-0.5-2.9c-0.1-0.8-0.6-1.3-1.2-1.1c-0.5,0.1-0.9,0.6-0.9,1
					c0,0.1,0,0.3,0,0.4l0.5,2.9l-0.8,0.1L241.2-39.1z"/>
				<path d="M252.7-37.4l-0.2-0.6l0,0c-0.2,0.4-0.7,0.8-1.3,1c-1,0.2-1.6-0.4-1.7-1.1c-0.2-1.2,0.7-2,2.6-2.2l0-0.1
					c-0.1-0.4-0.3-1.1-1.3-0.9c-0.4,0.1-0.9,0.3-1.2,0.6l-0.3-0.5c0.4-0.3,0.9-0.6,1.5-0.7c1.5-0.2,2,0.7,2.1,1.7l0.3,1.8
					c0.1,0.4,0.2,0.8,0.3,1.1L252.7-37.4z M252.2-39.8c-0.9,0.1-2,0.5-1.8,1.4c0.1,0.6,0.5,0.8,0.9,0.7c0.6-0.1,1-0.6,1-1
					c0-0.1,0-0.2,0-0.3L252.2-39.8z"/>
				<path d="M254.8-44c0,0.3-0.1,0.6-0.5,0.6c-0.3,0.1-0.6-0.2-0.6-0.5c0-0.3,0.1-0.6,0.5-0.6C254.5-44.5,254.7-44.3,254.8-44z
					 M254.8-37.7l-0.8-4.8l0.9-0.1l0.8,4.8L254.8-37.7z"/>
				<path d="M260.5-38.8c-0.2,0.1-0.7,0.4-1.3,0.5c-1.4,0.2-2.5-0.6-2.8-2c-0.2-1.5,0.6-2.7,2.1-3c0.5-0.1,1,0,1.2,0.1l-0.1,0.7
					c-0.2-0.1-0.6-0.1-1.1-0.1c-1.1,0.2-1.6,1.1-1.4,2.1c0.2,1.1,1,1.7,2,1.5c0.5-0.1,0.8-0.3,1-0.4L260.5-38.8z"/>
				<path d="M264.2-39.3l-0.2-0.6l0,0c-0.2,0.4-0.7,0.8-1.3,1c-1,0.2-1.6-0.4-1.7-1.1c-0.2-1.2,0.7-2,2.6-2.2l0-0.1
					c-0.1-0.4-0.3-1.1-1.3-0.9c-0.4,0.1-0.9,0.3-1.2,0.6l-0.3-0.5c0.4-0.3,0.9-0.6,1.5-0.7c1.5-0.2,2,0.7,2.1,1.7l0.3,1.8
					c0.1,0.4,0.2,0.8,0.3,1.1L264.2-39.3z M263.6-41.7c-0.9,0.1-2,0.5-1.8,1.4c0.1,0.6,0.5,0.8,0.9,0.7c0.6-0.1,1-0.6,1-1
					c0-0.1,0-0.2,0-0.3L263.6-41.7z"/>
			</g>
		</g>
		<g>
			<g class="st7">
				<path d="M231.2,16.5l0.4-6.7l1,0.1l2,3.5c0.4,0.8,0.8,1.5,1.1,2.3l0,0c0-0.9,0-1.7,0.1-2.8l0.2-2.8l0.8,0l-0.4,6.7l-0.9,0
					l-2-3.5c-0.4-0.8-0.8-1.6-1.1-2.3l0,0c0,0.9,0,1.7-0.1,2.8l-0.2,2.9L231.2,16.5z"/>
				<path d="M237.7,16.9l0.3-4.8l0.9,0l-0.3,4.8L237.7,16.9z M239,10.8c0,0.3-0.2,0.5-0.6,0.5c-0.3,0-0.5-0.3-0.5-0.6
					c0-0.3,0.3-0.5,0.6-0.5C238.8,10.2,239,10.4,239,10.8z"/>
				<path d="M243.5,17c-0.2,0.1-0.8,0.2-1.4,0.2c-1.5-0.1-2.4-1.1-2.3-2.6c0.1-1.5,1.2-2.5,2.7-2.4c0.5,0,1,0.2,1.2,0.3l-0.2,0.7
					c-0.2-0.1-0.5-0.3-1-0.3c-1.1-0.1-1.8,0.7-1.8,1.7c-0.1,1.1,0.6,1.8,1.6,1.9c0.5,0,0.8-0.1,1.1-0.2L243.5,17z"/>
				<path d="M247.2,17.4l0-0.6l0,0c-0.3,0.4-0.8,0.7-1.5,0.6c-1-0.1-1.4-0.8-1.4-1.5c0.1-1.2,1.1-1.8,3-1.6l0-0.1c0-0.4,0-1.1-1-1.2
					c-0.4,0-0.9,0.1-1.3,0.3l-0.2-0.6c0.4-0.2,1-0.4,1.6-0.3c1.5,0.1,1.8,1.1,1.7,2.1l-0.1,1.8c0,0.4,0,0.8,0,1.2L247.2,17.4z
					 M247.2,14.9c-0.9-0.1-2,0-2.1,1c0,0.6,0.3,0.9,0.8,0.9c0.6,0,1.1-0.3,1.2-0.7c0-0.1,0.1-0.2,0.1-0.3L247.2,14.9z"/>
				<path d="M249.5,14.2c0-0.6,0-1.1,0-1.5l0.8,0l0,0.9l0,0c0.3-0.6,0.8-1,1.4-1c0.1,0,0.2,0,0.2,0l0,0.8c-0.1,0-0.2,0-0.3,0
					c-0.6,0-1.1,0.4-1.2,1.1c0,0.1,0,0.3-0.1,0.4l-0.1,2.6l-0.9,0L249.5,14.2z"/>
				<path d="M255.3,17.8l0-0.6l0,0c-0.3,0.4-0.8,0.7-1.5,0.6c-1-0.1-1.4-0.8-1.4-1.5c0.1-1.2,1.1-1.8,3-1.6l0-0.1c0-0.4,0-1.1-1-1.2
					c-0.5,0-0.9,0.1-1.3,0.3l-0.2-0.6c0.4-0.2,1-0.4,1.6-0.3c1.5,0.1,1.8,1.1,1.7,2.1l-0.1,1.8c0,0.4,0,0.8,0,1.2L255.3,17.8z
					 M255.3,15.4c-0.9-0.1-2,0-2.1,1c0,0.6,0.3,0.9,0.8,0.9c0.6,0,1.1-0.3,1.2-0.7c0-0.1,0.1-0.2,0.1-0.3L255.3,15.4z"/>
				<path d="M261.8,13.4c0,0.3-0.1,0.7-0.1,1.3l-0.2,2.8c-0.1,1.1-0.3,1.8-0.8,2.2c-0.5,0.4-1.2,0.5-1.8,0.5c-0.6,0-1.2-0.2-1.6-0.5
					l0.3-0.7c0.3,0.2,0.8,0.4,1.4,0.5c0.9,0,1.6-0.4,1.6-1.6l0-0.5l0,0c-0.3,0.4-0.8,0.8-1.6,0.7c-1.2-0.1-2-1.1-1.9-2.5
					c0.1-1.6,1.2-2.5,2.3-2.4c0.8,0,1.3,0.5,1.5,0.9l0,0l0.1-0.7L261.8,13.4z M260.8,15.2c0-0.1,0-0.3,0-0.4c-0.1-0.5-0.5-1-1.2-1
					c-0.8,0-1.5,0.6-1.5,1.8c-0.1,0.9,0.4,1.8,1.3,1.8c0.5,0,1.1-0.3,1.3-0.8c0.1-0.1,0.1-0.3,0.1-0.5L260.8,15.2z"/>
				<path d="M267.1,17.2c0,0.5,0,0.9,0,1.3l-0.8,0l0-0.8l0,0c-0.2,0.4-0.8,0.9-1.6,0.8c-0.8,0-1.6-0.5-1.5-2.2l0.2-2.8l0.9,0
					l-0.1,2.7c0,0.9,0.2,1.6,1,1.6c0.6,0,1-0.4,1.2-0.7c0.1-0.1,0.1-0.3,0.1-0.4l0.2-3l0.9,0L267.1,17.2z"/>
				<path d="M271.2,18.7l0-0.6l0,0c-0.3,0.4-0.8,0.7-1.5,0.6c-1-0.1-1.4-0.8-1.4-1.5c0.1-1.2,1.1-1.8,3-1.6l0-0.1c0-0.4,0-1.1-1-1.2
					c-0.5,0-0.9,0.1-1.3,0.3l-0.2-0.6c0.4-0.2,1-0.4,1.6-0.3c1.5,0.1,1.8,1.1,1.7,2.1l-0.1,1.8c0,0.4,0,0.8,0,1.2L271.2,18.7z
					 M271.2,16.2c-0.9-0.1-2,0-2.1,1c0,0.6,0.3,0.9,0.8,0.9c0.6,0,1.1-0.3,1.2-0.7c0-0.1,0.1-0.2,0.1-0.3L271.2,16.2z"/>
			</g>
		</g>
		<g>
			<g class="st7">
				<path d="M227.1,60.3c0.4,0,1,0.1,1.6,0.3c0.8,0.2,1.4,0.6,1.7,1c0.3,0.4,0.4,0.9,0.2,1.5c-0.2,0.6-0.5,1-0.9,1.2
					c-0.6,0.3-1.4,0.4-2.2,0.2c-0.3-0.1-0.5-0.1-0.7-0.2l-0.7,2.6l-0.8-0.2L227.1,60.3z M227,63.6c0.2,0.1,0.4,0.2,0.7,0.3
					c1,0.3,1.8,0,2-0.9c0.2-0.9-0.3-1.5-1.2-1.7c-0.4-0.1-0.7-0.1-0.8-0.2L227,63.6z"/>
				<path d="M233,68.8l0.1-0.6l0,0c-0.4,0.3-1,0.5-1.6,0.3c-0.9-0.3-1.2-1.1-1.1-1.7c0.3-1.1,1.5-1.5,3.3-1l0-0.1
					c0.1-0.4,0.2-1.1-0.8-1.4c-0.4-0.1-0.9-0.1-1.3,0l0-0.6c0.5-0.1,1.1-0.1,1.7,0c1.4,0.4,1.5,1.5,1.2,2.4l-0.5,1.7
					c-0.1,0.4-0.2,0.8-0.2,1.1L233,68.8z M233.5,66.4c-0.9-0.3-2-0.4-2.3,0.5c-0.2,0.6,0.1,0.9,0.6,1c0.6,0.2,1.1-0.1,1.4-0.5
					c0.1-0.1,0.1-0.2,0.1-0.3L233.5,66.4z"/>
				<path d="M236,66c0.1-0.5,0.2-0.9,0.3-1.3l0.7,0.2l-0.2,0.8l0,0c0.3-0.4,1-0.7,1.8-0.4c0.6,0.2,1.5,0.8,1.1,2.4l-0.8,2.8
					l-0.8-0.2l0.7-2.7c0.2-0.8,0.1-1.5-0.7-1.7c-0.6-0.2-1.1,0.1-1.4,0.6c-0.1,0.1-0.1,0.2-0.2,0.4l-0.8,2.8l-0.8-0.2L236,66z"/>
				<path d="M243,71.6L243,71l0,0c-0.4,0.3-1,0.5-1.6,0.3c-0.9-0.3-1.2-1.1-1.1-1.7c0.3-1.1,1.5-1.5,3.3-1l0-0.1
					c0.1-0.4,0.2-1.1-0.8-1.4c-0.4-0.1-0.9-0.1-1.3,0l0-0.6c0.5-0.1,1.1-0.1,1.7,0c1.4,0.4,1.5,1.5,1.2,2.4l-0.5,1.7
					c-0.1,0.4-0.2,0.8-0.2,1.1L243,71.6z M243.5,69.2c-0.9-0.3-2-0.4-2.3,0.5c-0.2,0.6,0.1,0.9,0.6,1c0.6,0.2,1.1-0.1,1.4-0.5
					c0.1-0.1,0.1-0.2,0.1-0.3L243.5,69.2z"/>
				<path d="M246,68.8c0.1-0.5,0.2-0.9,0.3-1.3l0.7,0.2l-0.2,0.8l0,0c0.4-0.4,0.9-0.7,1.7-0.4c0.6,0.2,1,0.7,1.1,1.3l0,0
					c0.2-0.2,0.5-0.4,0.7-0.5c0.3-0.1,0.7-0.2,1.1,0c0.6,0.2,1.4,0.8,1,2.4l-0.8,2.7l-0.8-0.2l0.7-2.6c0.2-0.9,0.1-1.5-0.6-1.7
					c-0.5-0.1-1,0.1-1.2,0.5c-0.1,0.1-0.1,0.3-0.2,0.4l-0.8,2.9l-0.8-0.2l0.8-2.8c0.2-0.7,0-1.4-0.6-1.5c-0.5-0.1-1,0.2-1.3,0.6
					c-0.1,0.1-0.1,0.3-0.2,0.4l-0.8,2.8l-0.8-0.2L246,68.8z"/>
				<path d="M255.6,75.1l0.1-0.6l0,0c-0.4,0.3-1,0.5-1.6,0.3c-0.9-0.3-1.2-1.1-1.1-1.7c0.3-1.1,1.5-1.5,3.3-1l0-0.1
					c0.1-0.4,0.2-1.1-0.8-1.4c-0.4-0.1-0.9-0.1-1.3,0l0-0.6c0.5-0.1,1.1-0.1,1.7,0c1.4,0.4,1.5,1.5,1.2,2.4l-0.5,1.7
					c-0.1,0.4-0.2,0.8-0.2,1.1L255.6,75.1z M256.2,72.7c-0.9-0.3-2-0.4-2.3,0.5c-0.2,0.6,0.1,0.9,0.6,1c0.6,0.2,1.1-0.1,1.4-0.5
					c0.1-0.1,0.1-0.2,0.1-0.3L256.2,72.7z M257.8,68.5l-1.6,1.1l-0.6-0.2l1.2-1.1L257.8,68.5z"/>
			</g>
		</g>
		<g>
			<g class="st7">
				<path d="M215.9,111.5c0.4,0.1,0.9,0.3,1.5,0.7c0.8,0.4,1.2,0.9,1.4,1.4c0.2,0.5,0.1,1-0.1,1.5c-0.3,0.5-0.7,0.9-1.1,1
					c-0.6,0.2-1.4,0.1-2.2-0.3c-0.2-0.1-0.4-0.2-0.6-0.4l-1.3,2.4l-0.8-0.4L215.9,111.5z M215.2,114.7c0.1,0.1,0.3,0.3,0.6,0.4
					c0.9,0.5,1.7,0.3,2.2-0.5c0.4-0.8,0.1-1.5-0.8-1.9c-0.3-0.2-0.6-0.3-0.8-0.3L215.2,114.7z"/>
				<path d="M219,118.1c-0.5,1.1-0.1,1.8,0.7,2.3c0.6,0.3,0.9,0.4,1.3,0.4l-0.2,0.6c-0.3,0-0.9-0.1-1.6-0.5c-1.3-0.7-1.6-2-1-3.3
					c0.7-1.3,2-1.9,3.2-1.2c1.4,0.7,1.1,2.2,0.7,2.9c-0.1,0.2-0.2,0.3-0.2,0.3L219,118.1z M221.5,118.7c0.3-0.5,0.5-1.4-0.4-1.8
					c-0.8-0.4-1.5,0.1-1.9,0.6L221.5,118.7z"/>
				<path d="M223.5,119.2c0.3-0.5,0.5-0.9,0.7-1.3l0.7,0.4l-0.4,0.9l0,0c0.5-0.5,1.2-0.6,1.7-0.3c0.1,0,0.1,0.1,0.2,0.1l-0.4,0.7
					c-0.1-0.1-0.1-0.1-0.3-0.2c-0.5-0.3-1.2-0.1-1.6,0.4c-0.1,0.1-0.2,0.2-0.2,0.3l-1.2,2.3l-0.8-0.4L223.5,119.2z"/>
				<path d="M229,124.4c-0.2,0.4-0.4,0.8-0.6,1.2l-0.7-0.4l0.3-0.7l0,0c-0.4,0.2-1.1,0.5-1.8,0c-0.7-0.4-1.3-1.2-0.5-2.7l1.3-2.5
					l0.8,0.4l-1.3,2.4c-0.4,0.8-0.5,1.5,0.2,1.9c0.5,0.3,1.1,0.1,1.4-0.2c0.1-0.1,0.2-0.2,0.3-0.4l1.4-2.6l0.8,0.4L229,124.4z
					 M231.1,119.2l-1.7,0.7l-0.5-0.3l1.4-0.9L231.1,119.2z"/>
			</g>
		</g>
		<g>
			<g class="st7">
				<path d="M174.7,153.6l2.7-6.6l0.7,0.6l-1.4,3.2c-0.4,0.9-0.7,1.7-1.1,2.4l0,0c0.6-0.5,1.4-0.9,2.2-1.4l3-1.8l0.7,0.6l-6.2,3.6
					L174.7,153.6z"/>
				<path d="M179.6,154.8c-0.8,0.9-0.5,1.8,0.2,2.3c0.5,0.4,0.8,0.6,1.2,0.7l-0.3,0.6c-0.3-0.1-0.8-0.3-1.4-0.8
					c-1.1-1-1.2-2.3-0.2-3.4c0.9-1.1,2.3-1.4,3.4-0.5c1.2,1,0.6,2.3,0,3c-0.1,0.1-0.2,0.2-0.3,0.3L179.6,154.8z M182,156
					c0.4-0.4,0.7-1.2,0-1.9c-0.7-0.6-1.5-0.2-1.9,0.2L182,156z"/>
				<path d="M183.9,156.8c0.3-0.4,0.6-0.7,0.8-1l0.6,0.5l-0.5,0.6l0,0c0.5-0.2,1.2-0.2,1.8,0.3c0.5,0.4,1,1.4,0,2.7l-1.9,2.2
					l-0.7-0.6l1.8-2.1c0.5-0.6,0.7-1.3,0.1-1.8c-0.4-0.4-1-0.4-1.5-0.1c-0.1,0.1-0.2,0.2-0.3,0.3l-1.9,2.2l-0.7-0.6L183.9,156.8z"/>
				<path d="M187.6,161.7c-0.8,0.9-0.5,1.8,0.2,2.3c0.5,0.4,0.8,0.6,1.2,0.7l-0.3,0.6c-0.3-0.1-0.8-0.3-1.4-0.8
					c-1.1-1-1.2-2.3-0.2-3.4c0.9-1.1,2.3-1.4,3.4-0.5c1.2,1,0.6,2.3,0,3c-0.1,0.1-0.2,0.2-0.3,0.3L187.6,161.7z M190,162.8
					c0.4-0.4,0.7-1.2,0-1.9c-0.7-0.6-1.5-0.2-2,0.2L190,162.8z"/>
				<path d="M189.5,165.6l3.5-0.8c0.3-0.1,0.6-0.1,1-0.2l0,0l-2-1.7l0.5-0.5l2.8,2.4l-0.4,0.4l-3.5,0.7c-0.3,0.1-0.6,0.1-1,0.2l0,0
					l2.2,1.8l-0.5,0.5l-3-2.5L189.5,165.6z"/>
				<path d="M196.8,170.7c-0.3,0.4-0.6,0.7-0.8,1l-0.6-0.5l0.5-0.6l0,0c-0.4,0.2-1.1,0.2-1.8-0.3c-0.6-0.5-1-1.4,0.1-2.7l1.8-2.2
					l0.7,0.6l-1.7,2c-0.6,0.7-0.8,1.4-0.2,1.9c0.4,0.4,1,0.3,1.4,0.1c0.1-0.1,0.2-0.2,0.4-0.3l1.9-2.3l0.7,0.6L196.8,170.7z"/>
				<path d="M198.9,171.2c-0.8,0.9-0.5,1.8,0.2,2.3c0.5,0.4,0.8,0.6,1.2,0.7l-0.3,0.6c-0.3-0.1-0.8-0.3-1.4-0.8
					c-1.1-1-1.2-2.3-0.2-3.4c0.9-1.1,2.3-1.4,3.4-0.5c1.2,1,0.6,2.3,0,3c-0.1,0.1-0.2,0.2-0.3,0.3L198.9,171.2z M201.3,172.4
					c0.4-0.4,0.7-1.2,0-1.9c-0.7-0.6-1.5-0.2-2,0.2L201.3,172.4z"/>
				<path d="M205.5,170.5l0.7,0.6l-4.6,5.4l-0.7-0.6L205.5,170.5z"/>
				<path d="M204.7,179.2l0.3-0.5l0,0c-0.4,0.1-1.1,0-1.6-0.4c-0.7-0.6-0.7-1.5-0.2-2c0.8-0.9,2-0.7,3.4,0.5l0.1-0.1
					c0.3-0.3,0.6-0.9-0.1-1.6c-0.3-0.3-0.8-0.5-1.2-0.5l0.2-0.6c0.5,0.1,1,0.3,1.5,0.7c1.1,1,0.7,2,0.1,2.7l-1.2,1.4
					c-0.3,0.3-0.5,0.6-0.7,0.9L204.7,179.2z M206.2,177.2c-0.7-0.6-1.7-1.2-2.3-0.5c-0.4,0.4-0.3,0.9,0.1,1.2
					c0.5,0.4,1.1,0.4,1.4,0.1c0.1-0.1,0.2-0.1,0.2-0.2L206.2,177.2z"/>
			</g>
		</g>
		<g>
			<g class="st7">
				<path d="M144.6,191.6l-1.6-2.1l-1.9,1.5l1.8,2.3l-0.6,0.4l-2.3-3l5.4-4.1l2.2,2.9L147,190l-1.7-2.2l-1.7,1.3l1.6,2.1
					L144.6,191.6z"/>
				<path d="M148.5,191.7l-1.1,0.8l0.8,1l-0.5,0.4l-0.8-1l-2.1,1.6c-0.5,0.4-0.6,0.7-0.3,1.1c0.1,0.2,0.3,0.3,0.4,0.4l-0.5,0.4
					c-0.2-0.1-0.4-0.3-0.6-0.6c-0.2-0.3-0.3-0.7-0.3-1c0.1-0.4,0.3-0.7,0.8-1l2.1-1.6l-0.5-0.6l0.5-0.4l0.5,0.6l0.9-0.7L148.5,191.7
					z"/>
				<path d="M145,197.3l3.8-2.9l0.5,0.7l-3.8,2.9L145,197.3z M150.5,194.3c-0.2,0.2-0.6,0.2-0.8-0.1c-0.2-0.3-0.1-0.6,0.1-0.8
					c0.2-0.2,0.6-0.2,0.8,0.1C150.8,193.8,150.7,194.1,150.5,194.3z"/>
				<path d="M151,201.1c-1.4,1.1-2.8,0.6-3.5-0.4c-0.8-1-0.6-2.4,0.6-3.4c1.3-1,2.7-0.7,3.5,0.4C152.4,198.9,152.1,200.3,151,201.1z
					 M148.6,198.1c-0.8,0.6-1.1,1.6-0.6,2.3c0.5,0.7,1.5,0.7,2.4,0c0.7-0.5,1.2-1.4,0.6-2.3C150.4,197.3,149.3,197.6,148.6,198.1z"
					/>
				<path d="M152.3,201.6c0.5-0.4,0.9-0.7,1.2-1l0.5,0.6l-0.6,0.5l0,0c0.7-0.1,1.3,0.2,1.8,0.8c0.7,0.9,0.5,2.2-0.7,3.1
					c-1.4,1.1-2.7,0.7-3.4-0.2c-0.4-0.5-0.5-1.1-0.3-1.6l0,0l-2.1,1.6l-0.5-0.7L152.3,201.6z M151.8,203c-0.1,0.1-0.2,0.2-0.3,0.2
					c-0.4,0.5-0.4,1.2,0,1.7c0.6,0.7,1.5,0.7,2.4,0c0.8-0.6,1.1-1.5,0.6-2.2c-0.4-0.5-1-0.7-1.7-0.4c-0.1,0-0.2,0.1-0.3,0.2
					L151.8,203z"/>
				<path d="M153.1,208.1l3.8-2.9l0.5,0.7l-3.8,2.9L153.1,208.1z M159.7,205.3l-1.9-0.1l-0.4-0.5l1.7-0.2L159.7,205.3z"/>
				<path d="M156.2,212.1l0.4-0.4l0,0c-0.5,0-1-0.2-1.5-0.7c-0.6-0.8-0.3-1.6,0.2-2c0.9-0.7,2.1-0.3,3.2,1.2l0.1-0.1
					c0.3-0.2,0.8-0.8,0.2-1.5c-0.3-0.4-0.7-0.7-1-0.8l0.3-0.5c0.4,0.2,0.9,0.5,1.3,1c0.9,1.2,0.3,2.1-0.5,2.7l-1.4,1.1
					c-0.3,0.2-0.6,0.5-0.9,0.8L156.2,212.1z M158.1,210.4c-0.6-0.8-1.4-1.5-2.1-1c-0.5,0.3-0.4,0.8-0.2,1.2c0.4,0.5,0.9,0.6,1.4,0.4
					c0.1,0,0.2-0.1,0.2-0.1L158.1,210.4z"/>
			</g>
		</g>
		<g>
			<g class="st7">
				<path d="M104,218.2l0.4,0.8l-2.9,1.4l0,0c0.3,0.1,0.6,0.1,0.9,0.2l3.2,0.8l0.5,1l-3.6-1l-2.4,4l-0.4-0.9l2.1-3.4l-0.9-0.3
					l-2.3,1.1l-0.4-0.8L104,218.2z"/>
				<path d="M102.4,225.5c-1.1,0.5-1.2,1.4-0.8,2.2c0.3,0.6,0.5,0.9,0.8,1.1l-0.5,0.4c-0.3-0.2-0.6-0.6-1-1.3
					c-0.6-1.3-0.1-2.6,1.2-3.2c1.3-0.6,2.7-0.3,3.3,1c0.7,1.4-0.4,2.4-1.2,2.8c-0.2,0.1-0.3,0.1-0.4,0.1L102.4,225.5z M104,227.5
					c0.5-0.2,1.2-0.8,0.8-1.7c-0.4-0.8-1.3-0.8-1.9-0.6L104,227.5z"/>
				<path d="M105.4,229c0.5-0.2,0.8-0.4,1.2-0.6l0.3,0.7l-0.7,0.4l0,0c0.5,0,1.2,0.3,1.5,1.1c0.3,0.6,0.4,1.7-1.2,2.4l-2.6,1.2
					l-0.4-0.8l2.5-1.2c0.7-0.3,1.2-0.9,0.8-1.6c-0.2-0.5-0.8-0.8-1.3-0.7c-0.1,0-0.3,0.1-0.4,0.1l-2.6,1.2l-0.4-0.8L105.4,229z"/>
				<path d="M104.6,235.5l4.4-2l0.4,0.8l-4.4,2L104.6,235.5z M110.6,233.8c-0.3,0.1-0.6,0-0.7-0.3c-0.1-0.3,0-0.6,0.3-0.7
					c0.3-0.1,0.6,0,0.7,0.3C111,233.4,110.9,233.7,110.6,233.8z"/>
				<path d="M106.7,240.1l0.5-0.3l0,0c-0.5-0.1-1-0.4-1.3-1c-0.4-0.9,0-1.6,0.6-1.9c1.1-0.5,2.1,0.2,2.9,1.9l0.1,0
					c0.4-0.2,1-0.6,0.5-1.5c-0.2-0.4-0.5-0.8-0.9-1l0.4-0.4c0.4,0.3,0.8,0.7,1.1,1.3c0.6,1.3-0.1,2.1-1,2.5l-1.6,0.8
					c-0.4,0.2-0.7,0.4-1,0.6L106.7,240.1z M108.9,238.9c-0.4-0.9-1-1.8-1.8-1.4c-0.5,0.2-0.6,0.7-0.4,1.1c0.3,0.6,0.8,0.8,1.2,0.7
					c0.1,0,0.2,0,0.3-0.1L108.9,238.9z"/>
			</g>
		</g>
		<g>
			<g class="st7">
				<path d="M48.8,226.4c0.9-0.3,2-0.6,2.8-0.7l0,0c-0.8-0.1-1.7-0.1-2.7-0.3l-3.4-0.5l-0.1-0.6l2.9-1.8c0.9-0.5,1.6-1,2.4-1.3l0,0
					c-0.8,0.2-1.9,0.4-2.9,0.5l-2.9,0.4l-0.2-0.8l6.7-1l0.2,1.1l-2.9,1.8c-0.7,0.4-1.4,0.8-2.1,1.2l0,0c0.7,0,1.5,0.1,2.4,0.2
					l3.4,0.5l0.2,1.1l-6.5,1.9l-0.2-0.8L48.8,226.4z"/>
				<path d="M49.7,233c-1.7,0.4-2.8-0.7-3-1.8c-0.3-1.3,0.4-2.5,1.9-2.8c1.6-0.3,2.7,0.5,3,1.8C51.9,231.6,51.2,232.7,49.7,233z
					 M48.8,229.3c-1,0.2-1.7,1-1.5,1.8c0.2,0.8,1.1,1.3,2.2,1c0.8-0.2,1.7-0.8,1.5-1.8C50.8,229.3,49.7,229.1,48.8,229.3z"/>
				<path d="M47.9,234l3.2,1.5c0.3,0.2,0.6,0.3,0.9,0.5l0,0l-0.6-2.6l0.7-0.2l0.8,3.6l-0.5,0.1l-3.2-1.5c-0.3-0.1-0.6-0.3-0.9-0.4
					l0,0l0.6,2.8l-0.7,0.2l-0.8-3.8L47.9,234z"/>
				<path d="M49.1,241.4l0.6-0.2l0,0c-0.4-0.2-0.9-0.6-1-1.3c-0.2-1,0.4-1.6,1-1.7c1.1-0.3,2,0.6,2.4,2.4l0.1,0
					c0.4-0.1,1.1-0.3,0.9-1.3c-0.1-0.4-0.3-0.9-0.6-1.2l0.5-0.3c0.3,0.3,0.6,0.9,0.8,1.5c0.3,1.4-0.6,2-1.5,2.2l-1.8,0.4
					c-0.4,0.1-0.8,0.2-1.1,0.3L49.1,241.4z M51.4,240.8c-0.2-0.9-0.6-2-1.5-1.8c-0.6,0.1-0.7,0.6-0.6,1c0.1,0.6,0.6,0.9,1,1
					c0.1,0,0.2,0,0.3,0L51.4,240.8z"/>
				<path d="M53,242.8c0.5-0.1,0.9-0.2,1.3-0.3l0.2,0.7l-0.7,0.2l0,0c0.5,0.2,1,0.5,1.2,1.3c0.1,0.6-0.1,1.2-0.7,1.5l0,0
					c0.3,0.1,0.5,0.2,0.7,0.4c0.3,0.2,0.5,0.5,0.6,1c0.1,0.6-0.1,1.6-1.7,2l-2.8,0.6l-0.2-0.8l2.7-0.6c0.9-0.2,1.4-0.7,1.2-1.3
					c-0.1-0.5-0.5-0.8-1-0.9c-0.1,0-0.3,0-0.4,0l-2.9,0.6l-0.2-0.8l2.8-0.6c0.8-0.2,1.2-0.6,1.1-1.3c-0.1-0.5-0.6-0.8-1.1-0.9
					c-0.1,0-0.3,0-0.4,0l-2.8,0.6l-0.2-0.8L53,242.8z"/>
				<path d="M51.3,251.6c0.3,0,0.8-0.1,1.2-0.2l5.7-1.3l0.2,0.9l-3,0.7l0,0c0.6,0.2,1.1,0.7,1.2,1.4c0.3,1.2-0.5,2.2-2,2.5
					c-1.7,0.4-2.8-0.5-3-1.6c-0.2-0.7,0-1.3,0.5-1.8l0,0l-0.8,0.1L51.3,251.6z M53.4,252.1c-0.1,0-0.2,0.1-0.3,0.1
					c-0.6,0.3-0.9,0.9-0.7,1.5c0.2,0.9,1,1.3,2.1,1c0.9-0.2,1.7-0.9,1.5-1.8c-0.1-0.6-0.7-1-1.3-1.1c-0.1,0-0.2,0-0.4,0L53.4,252.1z
					"/>
				<path d="M52.5,257.2l4.7-1l0.2,0.9l-4.7,1L52.5,257.2z M58.8,256.9c-0.3,0.1-0.6-0.1-0.7-0.4c-0.1-0.3,0.1-0.6,0.4-0.6
					c0.3-0.1,0.6,0.1,0.7,0.4C59.3,256.5,59.1,256.8,58.8,256.9z"/>
				<path d="M54.5,262.6L54.5,262.6c-0.5-0.2-1-0.6-1.2-1.4c-0.2-1.1,0.5-2.2,1.9-2.5c1.8-0.4,2.8,0.6,3,1.6
					c0.2,0.7-0.1,1.3-0.5,1.6l0,0l0.7-0.1l0.2,0.8c-0.4,0.1-0.8,0.1-1.3,0.2L52,264l-0.2-0.9L54.5,262.6z M56.6,262.1
					c0.1,0,0.2-0.1,0.3-0.1c0.5-0.2,0.8-0.8,0.7-1.5c-0.2-0.9-1.1-1.3-2.1-1c-0.9,0.2-1.7,0.8-1.5,1.8c0.1,0.6,0.6,1,1.2,1
					c0.1,0,0.3,0,0.4,0L56.6,262.1z"/>
				<path d="M56.4,268.7c-0.5,0.1-0.9,0.2-1.3,0.3l-0.2-0.8l0.8-0.2l0,0c-0.4-0.1-1-0.5-1.2-1.4c-0.2-0.7,0.1-1.7,1.7-2.1L59,264
					l0.2,0.9l-2.6,0.6c-0.9,0.2-1.5,0.6-1.3,1.4c0.1,0.6,0.6,0.9,1,1c0.1,0,0.3,0,0.5,0l2.9-0.6l0.2,0.9L56.4,268.7z"/>
				<path d="M57.7,270.4c-1.2,0.3-1.5,1.1-1.3,2c0.1,0.6,0.3,1,0.5,1.3l-0.6,0.3c-0.2-0.3-0.5-0.8-0.6-1.5c-0.3-1.5,0.5-2.5,1.9-2.8
					c1.4-0.3,2.7,0.3,3,1.7c0.3,1.5-0.9,2.2-1.8,2.4c-0.2,0-0.3,0.1-0.4,0.1L57.7,270.4z M58.9,272.8c0.5-0.1,1.3-0.5,1.1-1.5
					c-0.2-0.9-1.1-1.1-1.7-1L58.9,272.8z"/>
			</g>
		</g>
		<g>
			<g class="st7">
				<path d="M-2,271.8v2.1h-0.7v-5H-2v2.1h6v0.9H-2z"/>
				<path d="M4,265.5l-0.6,0.1v0c0.4,0.3,0.7,0.8,0.7,1.5c0,1-0.7,1.5-1.4,1.5c-1.2,0-1.8-1-1.8-2.9H0.8c-0.4,0-1.1,0.1-1.1,1.1
					c0,0.4,0.1,0.9,0.4,1.3l-0.6,0.2c-0.3-0.4-0.4-1-0.4-1.6c0-1.5,1-1.8,2-1.8h1.8c0.4,0,0.8,0,1.2-0.1V265.5z M1.5,265.6
					c0,1,0.2,2,1.1,2c0.6,0,0.8-0.4,0.8-0.8c0-0.6-0.4-1-0.8-1.2c-0.1,0-0.2,0-0.3,0H1.5z"/>
				<path d="M0.5,263.3c-0.5,0-0.9,0-1.3,0v-0.8l0.8,0v0c-0.5-0.2-0.9-0.8-0.9-1.6c0-0.7,0.4-1.7,2.1-1.7H4v0.9H1.2
					c-0.8,0-1.4,0.3-1.4,1.1c0,0.6,0.4,1,0.9,1.2c0.1,0,0.3,0.1,0.4,0.1H4v0.9H0.5z"/>
				<path d="M3.5,258.3l-2.8-2.2c-0.3-0.2-0.5-0.4-0.8-0.6h0v2.6h-0.7v-3.7l0.5,0l2.8,2.2c0.3,0.2,0.5,0.4,0.8,0.6h0v-2.8H4v3.9H3.5
					z"/>
				<path d="M4,250.8l-0.6,0.1v0c0.4,0.3,0.7,0.8,0.7,1.5c0,1-0.7,1.5-1.4,1.5c-1.2,0-1.8-1-1.8-2.9H0.8c-0.4,0-1.1,0.1-1.1,1.1
					c0,0.5,0.1,0.9,0.4,1.3l-0.6,0.2c-0.3-0.4-0.4-1-0.4-1.6c0-1.5,1-1.8,2-1.8h1.8c0.4,0,0.8,0,1.2-0.1V250.8z M1.5,251
					c0,1,0.2,2,1.1,2c0.6,0,0.8-0.4,0.8-0.8c0-0.6-0.4-1-0.8-1.2c-0.1,0-0.2,0-0.3,0H1.5z"/>
				<path d="M0.5,248.7c-0.5,0-0.9,0-1.3,0V248l0.8,0v0c-0.5-0.2-0.9-0.8-0.9-1.6c0-0.7,0.4-1.7,2.1-1.7H4v0.9H1.2
					c-0.8,0-1.4,0.3-1.4,1.1c0,0.6,0.4,1,0.9,1.2c0.1,0,0.3,0.1,0.4,0.1H4v0.9H0.5z"/>
				<path d="M-2.2,242.2c0.3,0,0.5,0.2,0.5,0.6c0,0.3-0.2,0.5-0.5,0.5c-0.3,0-0.5-0.2-0.5-0.5C-2.7,242.4-2.5,242.2-2.2,242.2z
					 M4,243.1h-4.8v-0.9H4V243.1z"/>
				<path d="M4,238.1l-0.6,0.1v0c0.4,0.3,0.7,0.8,0.7,1.5c0,1-0.7,1.5-1.4,1.5c-1.2,0-1.8-1-1.8-2.9H0.8c-0.4,0-1.1,0.1-1.1,1.1
					c0,0.5,0.1,0.9,0.4,1.3l-0.6,0.2c-0.3-0.4-0.4-1-0.4-1.6c0-1.5,1-1.8,2-1.8h1.8c0.4,0,0.8,0,1.2-0.1V238.1z M1.5,238.3
					c0,1,0.2,2,1.1,2c0.6,0,0.8-0.4,0.8-0.8c0-0.6-0.4-1-0.8-1.2c-0.1,0-0.2,0-0.3,0H1.5z"/>
			</g>
		</g>
		<g>
			<g class="st7">
				<path d="M-54.7,264.6l-4.5-4.8l0,0l-0.7,3.3l-0.7-0.2l1-4.4l0.5,0.1l4.5,4.8l0,0l0.8-3.7l0.7,0.2l-1.1,4.8L-54.7,264.6z"/>
				<path d="M-52.3,256.2l-0.6-0.1l0,0c0.3,0.3,0.5,0.9,0.4,1.6c-0.2,1-1,1.3-1.7,1.1c-1.1-0.3-1.5-1.4-1.1-3.2l-0.1,0
					c-0.4-0.1-1.1-0.1-1.3,0.8c-0.1,0.4-0.1,0.9,0.1,1.3l-0.6,0.1c-0.2-0.4-0.2-1.1-0.1-1.6c0.3-1.4,1.4-1.6,2.3-1.4l1.8,0.4
					c0.4,0.1,0.8,0.2,1.1,0.2L-52.3,256.2z M-54.7,255.8c-0.2,0.9-0.3,2,0.6,2.2c0.6,0.1,0.9-0.2,1-0.6c0.1-0.6-0.2-1.1-0.5-1.3
					c-0.1-0.1-0.2-0.1-0.3-0.1L-54.7,255.8z"/>
				<path d="M-55.3,253.4c-0.5-0.1-0.9-0.2-1.3-0.2l0.2-0.7l0.8,0.1l0,0c-0.4-0.4-0.7-0.9-0.5-1.7c0.1-0.6,0.6-1,1.2-1.1l0,0
					c-0.2-0.2-0.4-0.4-0.5-0.7c-0.2-0.3-0.2-0.7-0.1-1.1c0.1-0.6,0.7-1.5,2.4-1.1l2.8,0.6l-0.2,0.8l-2.7-0.6c-0.9-0.2-1.5,0-1.7,0.7
					c-0.1,0.5,0.2,0.9,0.5,1.2c0.1,0.1,0.3,0.1,0.4,0.2l2.9,0.6l-0.2,0.8l-2.8-0.6c-0.8-0.2-1.4,0-1.5,0.7c-0.1,0.5,0.2,1,0.6,1.3
					c0.1,0.1,0.3,0.1,0.4,0.2l2.8,0.6l-0.2,0.8L-55.3,253.4z"/>
				<path d="M-50.1,246c-0.3-0.1-0.8-0.2-1.2-0.3l-5.7-1.3l0.2-0.9l3,0.7l0,0c-0.5-0.4-0.7-1-0.5-1.8c0.3-1.2,1.4-1.8,2.8-1.5
					c1.7,0.4,2.3,1.6,2.1,2.7c-0.1,0.7-0.5,1.2-1.2,1.4l0,0l0.8,0.2L-50.1,246z M-51.8,244.7c0.1,0,0.2,0,0.3,0
					c0.6,0,1.2-0.4,1.3-1.1c0.2-0.9-0.4-1.6-1.5-1.8c-0.9-0.2-1.9,0.1-2.1,1c-0.1,0.6,0.2,1.2,0.8,1.5c0.1,0.1,0.2,0.1,0.3,0.1
					L-51.8,244.7z"/>
				<path d="M-54.7,238.1c0.3,0.1,0.5,0.3,0.4,0.7c-0.1,0.3-0.4,0.5-0.6,0.4c-0.3-0.1-0.5-0.3-0.4-0.7
					C-55.3,238.2-55,238.1-54.7,238.1z M-48.8,240.4l-4.7-1l0.2-0.9l4.7,1L-48.8,240.4z"/>
				<path d="M-47.7,235.5l-0.6-0.1l0,0c0.3,0.3,0.5,0.9,0.4,1.6c-0.2,1-1,1.3-1.7,1.1c-1.1-0.3-1.5-1.4-1.1-3.2l-0.1,0
					c-0.4-0.1-1.1-0.1-1.3,0.8c-0.1,0.4-0.1,0.9,0.1,1.3l-0.6,0.1c-0.2-0.4-0.2-1.1-0.1-1.7c0.3-1.4,1.4-1.6,2.3-1.4l1.8,0.4
					c0.4,0.1,0.8,0.2,1.1,0.2L-47.7,235.5z M-50.2,235.1c-0.2,0.9-0.3,2,0.6,2.2c0.6,0.1,0.9-0.2,1-0.6c0.1-0.6-0.2-1.1-0.5-1.3
					c-0.1,0-0.2-0.1-0.3-0.1L-50.2,235.1z"/>
			</g>
		</g>
		<g>
			<g class="st7">
				<path d="M-112.9,237.5l6.1,2.8l-0.4,0.8l-6.1-2.8L-112.9,237.5z"/>
				<path d="M-109.4,237.5c-0.5-0.2-0.8-0.4-1.2-0.5l0.3-0.7l0.7,0.3l0,0c-0.3-0.4-0.5-1.1-0.1-1.8c0.3-0.6,1.1-1.4,2.6-0.7l2.6,1.2
					l-0.4,0.8l-2.5-1.2c-0.7-0.3-1.4-0.3-1.8,0.4c-0.2,0.5-0.1,1.1,0.3,1.5c0.1,0.1,0.2,0.2,0.3,0.2l2.6,1.2l-0.4,0.8L-109.4,237.5z
					"/>
				<path d="M-108.5,227.2l5.3,2.5c0.4,0.2,0.8,0.4,1.1,0.5l-0.3,0.7l-0.8-0.3l0,0c0.4,0.5,0.5,1.2,0.2,1.9
					c-0.5,1.1-1.8,1.5-3.1,0.9c-1.5-0.7-1.9-2-1.4-3.1c0.3-0.7,0.8-1,1.3-1l0,0l-2.6-1.2L-108.5,227.2z M-105,229.8
					c-0.1,0-0.2-0.1-0.4-0.1c-0.6-0.1-1.2,0.1-1.5,0.7c-0.4,0.8,0.1,1.7,1.1,2.1c0.9,0.4,1.8,0.3,2.2-0.5c0.2-0.5,0.1-1.2-0.4-1.6
					c-0.1-0.1-0.2-0.1-0.3-0.2L-105,229.8z"/>
				<path d="M-106.7,225.3c0.3,0.1,0.4,0.4,0.3,0.7c-0.1,0.3-0.4,0.4-0.7,0.3c-0.3-0.1-0.4-0.4-0.3-0.7
					C-107.3,225.3-107,225.2-106.7,225.3z M-101.5,228.8l-4.4-2l0.4-0.8l4.4,2L-101.5,228.8z"/>
				<path d="M-99.4,224.3l-0.6-0.2l0,0c0.2,0.4,0.3,1,0,1.6c-0.4,0.9-1.2,1-1.9,0.8c-1.1-0.5-1.2-1.7-0.4-3.4l-0.1,0
					c-0.4-0.2-1.1-0.4-1.5,0.5c-0.2,0.4-0.3,0.9-0.2,1.3l-0.6-0.1c-0.1-0.5,0-1.1,0.3-1.6c0.6-1.3,1.7-1.2,2.6-0.8l1.6,0.8
					c0.4,0.2,0.8,0.3,1.1,0.4L-99.4,224.3z M-101.6,223.4c-0.4,0.9-0.7,1.9,0.1,2.3c0.5,0.2,0.9,0,1.1-0.4c0.3-0.6,0.1-1.1-0.2-1.4
					c-0.1-0.1-0.2-0.1-0.2-0.2L-101.6,223.4z"/>
			</g>
		</g>
		<g>
			<g class="st7">
				<path d="M-167.9,216.3l5.4,4.1l-0.5,0.7l-5.4-4.1L-167.9,216.3z"/>
				<path d="M-164.4,217.1c-0.4-0.3-0.7-0.5-1.1-0.8l0.5-0.6l0.7,0.4l0,0c-0.2-0.5-0.2-1.2,0.2-1.8c0.4-0.5,1.3-1.1,2.7-0.1l2.3,1.7
					l-0.5,0.7l-2.2-1.7c-0.6-0.5-1.3-0.6-1.8,0c-0.3,0.5-0.3,1.1,0,1.5c0.1,0.1,0.2,0.2,0.3,0.3l2.3,1.8l-0.5,0.7L-164.4,217.1z"/>
				<path d="M-161.4,207.2l4.7,3.5c0.3,0.3,0.7,0.5,1,0.7l-0.5,0.6l-0.7-0.5l0,0c0.3,0.5,0.2,1.2-0.2,1.9c-0.7,0.9-2,1.1-3.2,0.2
					c-1.3-1-1.5-2.4-0.8-3.3c0.4-0.6,1-0.8,1.5-0.7l0,0l-2.3-1.7L-161.4,207.2z M-158.5,210.4c-0.1-0.1-0.2-0.1-0.3-0.2
					c-0.5-0.2-1.2-0.1-1.6,0.4c-0.6,0.7-0.2,1.6,0.6,2.3c0.8,0.6,1.7,0.7,2.3-0.1c0.4-0.5,0.4-1.1-0.1-1.7c-0.1-0.1-0.2-0.2-0.3-0.3
					L-158.5,210.4z"/>
				<path d="M-154.2,205.3c1.4,1.1,1.3,2.5,0.6,3.5c-0.8,1-2.2,1.3-3.4,0.3c-1.3-1-1.4-2.4-0.6-3.5
					C-156.7,204.6-155.3,204.4-154.2,205.3z M-156.4,208.4c0.8,0.6,1.8,0.6,2.4,0c0.5-0.7,0.3-1.6-0.6-2.3c-0.7-0.5-1.7-0.8-2.4,0
					C-157.7,206.9-157.2,207.9-156.4,208.4z"/>
				<path d="M-154.3,203.8c-0.4-0.3-0.7-0.5-1.1-0.8l0.5-0.6l0.7,0.4l0,0c-0.2-0.5-0.2-1.2,0.2-1.8c0.4-0.5,1.3-1.1,2.7-0.1l2.3,1.7
					l-0.5,0.7l-2.2-1.7c-0.6-0.5-1.3-0.6-1.8,0c-0.3,0.5-0.3,1.1,0,1.5c0.1,0.1,0.2,0.2,0.3,0.3l2.3,1.8l-0.5,0.7L-154.3,203.8z"/>
				<path d="M-149.7,199.8c1,0.7,1.8,0.4,2.3-0.3c0.4-0.5,0.5-0.9,0.6-1.2l0.6,0.3c-0.1,0.3-0.3,0.9-0.7,1.5
					c-0.9,1.2-2.2,1.3-3.4,0.4c-1.2-0.9-1.6-2.3-0.7-3.4c1-1.3,2.3-0.7,3-0.2c0.1,0.1,0.2,0.2,0.3,0.3L-149.7,199.8z M-148.6,197.3
					c-0.4-0.3-1.3-0.7-1.9,0.1c-0.5,0.7-0.1,1.5,0.3,1.9L-148.6,197.3z"/>
				<path d="M-145.9,197.1c0.3-0.1,0.7-0.4,1-0.7c0.4-0.5,0.3-0.9,0-1.2c-0.3-0.3-0.7-0.2-1.2,0.2c-0.8,0.5-1.4,0.5-1.9,0.2
					c-0.6-0.5-0.7-1.4-0.1-2.2c0.3-0.4,0.7-0.6,1-0.8l0.4,0.6c-0.2,0.1-0.6,0.3-0.8,0.6c-0.3,0.4-0.2,0.8,0,1
					c0.3,0.2,0.6,0.1,1.2-0.2c0.8-0.5,1.3-0.6,1.9-0.1c0.7,0.5,0.8,1.4,0.1,2.3c-0.3,0.4-0.7,0.7-1.1,0.9L-145.9,197.1z"/>
				<path d="M-147.1,189.8c0.2,0.2,0.3,0.5,0.1,0.8c-0.2,0.3-0.5,0.3-0.8,0.1c-0.2-0.2-0.3-0.5-0.1-0.8
					C-147.6,189.7-147.3,189.7-147.1,189.8z M-142.7,194.4l-3.8-2.9l0.5-0.7l3.8,2.9L-142.7,194.4z"/>
				<path d="M-139.7,190.4l-0.5-0.3l0,0c0.1,0.4,0.1,1.1-0.3,1.6c-0.6,0.8-1.4,0.8-2,0.3c-0.9-0.7-0.8-1.9,0.3-3.4l-0.1-0.1
					c-0.3-0.2-1-0.6-1.6,0.2c-0.3,0.4-0.4,0.8-0.5,1.2l-0.6-0.2c0-0.5,0.3-1,0.6-1.5c0.9-1.2,1.9-0.9,2.7-0.3l1.4,1.1
					c0.3,0.2,0.7,0.5,1,0.6L-139.7,190.4z M-141.7,189c-0.6,0.7-1.1,1.7-0.4,2.3c0.5,0.3,0.9,0.2,1.2-0.1c0.4-0.5,0.3-1.1,0.1-1.4
					c-0.1-0.1-0.1-0.1-0.2-0.2L-141.7,189z"/>
			</g>
		</g>
		<g>
			<g class="st7">
				<path d="M-200.9,175.9l-1.8-2.2l-4.1-1.6l0.8-0.6l1.9,0.8c0.5,0.2,0.9,0.4,1.4,0.6l0,0c-0.1-0.5-0.3-0.9-0.4-1.5l-0.5-2l0.8-0.6
					l0.8,4.4l1.9,2.2L-200.9,175.9z"/>
				<path d="M-199.1,171.4c0.8,0.9,1.7,0.8,2.3,0.2c0.5-0.4,0.7-0.7,0.9-1.1l0.5,0.4c-0.1,0.3-0.4,0.8-1,1.3c-1.1,1-2.5,0.8-3.4-0.3
					c-0.9-1.1-1-2.5,0-3.5c1.2-1,2.4-0.2,3,0.4c0.1,0.1,0.2,0.2,0.2,0.3L-199.1,171.4z M-197.5,169.2c-0.4-0.4-1.1-0.9-1.8-0.3
					c-0.7,0.6-0.5,1.4-0.1,2L-197.5,169.2z"/>
				<path d="M-196.5,167.5c-0.3-0.4-0.6-0.7-0.9-1l0.6-0.5l0.5,0.6l0,0c-0.1-0.5,0-1.1,0.6-1.7c0.5-0.4,1.1-0.4,1.7-0.1l0,0
					c-0.1-0.3,0-0.6,0-0.8c0.1-0.4,0.2-0.7,0.6-0.9c0.5-0.4,1.5-0.7,2.6,0.6l1.8,2.2l-0.7,0.6l-1.8-2.1c-0.6-0.7-1.2-0.9-1.8-0.5
					c-0.4,0.3-0.4,0.9-0.3,1.3c0,0.1,0.1,0.3,0.2,0.4l1.9,2.3l-0.7,0.6l-1.9-2.2c-0.5-0.6-1.1-0.8-1.6-0.4c-0.4,0.4-0.4,0.9-0.3,1.4
					c0.1,0.1,0.1,0.3,0.2,0.4l1.9,2.2l-0.7,0.6L-196.5,167.5z"/>
				<path d="M-188.9,162.7c0.8,0.9,1.7,0.8,2.3,0.2c0.5-0.4,0.7-0.7,0.9-1.1l0.5,0.4c-0.1,0.3-0.4,0.8-1,1.3c-1.1,1-2.5,0.8-3.4-0.3
					c-0.9-1.1-1-2.5,0-3.5c1.2-1,2.4-0.2,3,0.4c0.1,0.1,0.2,0.2,0.2,0.3L-188.9,162.7z M-187.4,160.6c-0.4-0.4-1.1-0.9-1.8-0.3
					c-0.7,0.6-0.5,1.4-0.1,2L-187.4,160.6z"/>
				<path d="M-186.3,158.8c-0.3-0.4-0.6-0.7-0.9-1l0.6-0.5l0.6,0.6l0,0c-0.1-0.5,0-1.2,0.6-1.7c0.5-0.4,1.6-0.8,2.6,0.5l1.9,2.2
					l-0.7,0.6l-1.8-2.1c-0.5-0.6-1.2-0.9-1.8-0.4c-0.4,0.4-0.5,1-0.3,1.5c0,0.1,0.1,0.2,0.2,0.3l1.9,2.2l-0.7,0.6L-186.3,158.8z"/>
			</g>
		</g>
		<g>
			<g class="st7">
				<path d="M-235.8,122c0.3-0.3,0.8-0.6,1.3-0.9c0.8-0.4,1.3-0.5,1.9-0.4c0.4,0.1,0.8,0.3,1.1,0.8c0.3,0.6,0.2,1.3-0.3,1.8l0,0
					c0.6-0.2,1.5,0,2,0.8c0.3,0.5,0.3,1,0.1,1.5c-0.2,0.6-0.8,1.1-1.8,1.6c-0.5,0.3-1,0.5-1.2,0.6L-235.8,122z M-233.7,124.1
					l0.7-0.4c0.8-0.4,1.1-1.1,0.7-1.7c-0.4-0.7-1-0.7-1.8-0.3c-0.4,0.2-0.5,0.3-0.7,0.4L-233.7,124.1z M-232.2,126.9
					c0.2-0.1,0.4-0.2,0.7-0.3c0.8-0.4,1.4-1.1,0.9-2c-0.4-0.8-1.3-0.8-2.1-0.3l-0.6,0.3L-232.2,126.9z"/>
				<path d="M-229.5,122.4c-0.3-0.5-0.5-0.9-0.7-1.3l0.7-0.4l0.5,0.8l0,0c-0.1-0.7,0.2-1.3,0.7-1.6c0.1,0,0.1-0.1,0.2-0.1l0.4,0.7
					c-0.1,0-0.2,0.1-0.3,0.1c-0.5,0.3-0.7,0.9-0.5,1.5c0,0.1,0.1,0.3,0.2,0.4l1.2,2.3l-0.8,0.4L-229.5,122.4z"/>
				<path d="M-222.7,122.6l-0.4-0.5l0,0c-0.1,0.5-0.4,1-1,1.3c-0.9,0.5-1.6,0.1-2-0.5c-0.5-1,0.1-2.1,1.7-3l0-0.1
					c-0.2-0.3-0.6-0.9-1.5-0.5c-0.4,0.2-0.8,0.5-0.9,0.9l-0.5-0.4c0.2-0.4,0.7-0.8,1.2-1.1c1.3-0.7,2.1,0,2.6,0.9l0.8,1.6
					c0.2,0.4,0.4,0.7,0.6,1L-222.7,122.6z M-223.9,120.5c-0.9,0.4-1.7,1.1-1.3,1.9c0.3,0.5,0.7,0.6,1.1,0.4c0.6-0.3,0.7-0.8,0.7-1.3
					c0-0.1-0.1-0.2-0.1-0.3L-223.9,120.5z"/>
				<path d="M-221.3,120.8c0.3,0,0.8,0,1.2-0.2c0.6-0.3,0.7-0.7,0.5-1.1c-0.2-0.4-0.5-0.5-1.2-0.4c-0.9,0.1-1.5-0.1-1.8-0.6
					c-0.4-0.7-0.1-1.5,0.8-2c0.4-0.2,0.9-0.3,1.2-0.3l0.1,0.7c-0.2,0-0.6,0-1,0.2c-0.5,0.2-0.6,0.6-0.4,1c0.2,0.4,0.5,0.4,1.2,0.3
					c0.9-0.1,1.5,0.1,1.8,0.7c0.4,0.8,0.1,1.6-0.9,2.1c-0.5,0.2-1,0.4-1.4,0.3L-221.3,120.8z"/>
				<path d="M-219.3,113.8c0.1,0.3,0.1,0.6-0.2,0.7c-0.3,0.1-0.6,0-0.7-0.2c-0.1-0.3-0.1-0.6,0.2-0.7
					C-219.8,113.4-219.5,113.5-219.3,113.8z M-217.3,119.7l-2.3-4.3l0.8-0.4l2.3,4.3L-217.3,119.7z"/>
				<path d="M-218.5,112.4l0.8-0.4l3.3,6.3l-0.8,0.4L-218.5,112.4z"/>
			</g>
		</g>
		<g>
			<g class="st7">
				<path d="M-257.2,73.4l-0.1,2.2l-0.9,0.2l0.4-7.1l1-0.3l4,5.9l-0.9,0.2l-1.3-1.8L-257.2,73.4z M-255.3,72.1l-1.2-1.7
					c-0.3-0.4-0.5-0.7-0.7-1.1l0,0c0,0.4,0,0.8,0,1.3l-0.1,2.1L-255.3,72.1z"/>
				<path d="M-252.8,70.7c-0.1-0.5-0.3-0.9-0.4-1.2l0.7-0.2l0.3,0.8l0,0c0.1-0.5,0.5-1.1,1.3-1.3c0.6-0.2,1.7-0.1,2.2,1.5l0.8,2.8
					l-0.8,0.2l-0.7-2.7c-0.2-0.8-0.7-1.3-1.5-1.1c-0.6,0.2-0.9,0.7-0.9,1.2c0,0.1,0,0.3,0.1,0.4l0.8,2.8l-0.8,0.2L-252.8,70.7z"/>
				<path d="M-243.8,66.8c0.1,0.3,0.2,0.7,0.3,1.3l0.8,2.7c0.3,1.1,0.3,1.8-0.1,2.3c-0.3,0.5-1,0.9-1.5,1c-0.6,0.2-1.2,0.2-1.7,0
					l0-0.7c0.4,0.1,0.9,0.2,1.5,0c0.9-0.2,1.4-0.9,1-2l-0.1-0.5l0,0c-0.1,0.5-0.5,1-1.3,1.2c-1.2,0.3-2.3-0.4-2.6-1.7
					c-0.4-1.6,0.3-2.8,1.4-3.1c0.8-0.2,1.4,0.1,1.7,0.4l0,0l-0.2-0.7L-243.8,66.8z M-244.1,68.9c0-0.1-0.1-0.3-0.2-0.4
					c-0.3-0.5-0.8-0.7-1.4-0.6c-0.8,0.2-1.2,1.1-0.9,2.2c0.3,0.9,0.9,1.5,1.8,1.3c0.5-0.1,0.9-0.6,0.9-1.2c0-0.1,0-0.3-0.1-0.5
					L-244.1,68.9z"/>
				<path d="M-237.5,67.5c0.5,1.7-0.5,2.8-1.6,3.1c-1.3,0.4-2.5-0.3-2.9-1.8c-0.4-1.6,0.3-2.8,1.6-3.1
					C-239.1,65.4-237.9,66.1-237.5,67.5z M-241.2,68.6c0.3,1,1.1,1.6,1.9,1.4c0.8-0.2,1.2-1.2,0.9-2.2c-0.2-0.8-0.9-1.7-1.9-1.4
					C-241.3,66.7-241.5,67.7-241.2,68.6z"/>
				<path d="M-237.7,62.8l0.8-0.2l1.9,6.8l-0.8,0.2L-237.7,62.8z"/>
				<path d="M-231,68.3l-0.2-0.6l0,0c-0.2,0.4-0.6,0.9-1.2,1.1c-0.9,0.3-1.6-0.3-1.8-0.9c-0.3-1.1,0.5-2,2.3-2.5l0-0.1
					c-0.1-0.4-0.4-1-1.4-0.8c-0.4,0.1-0.9,0.4-1.1,0.7l-0.3-0.5c0.3-0.4,0.8-0.7,1.4-0.8c1.4-0.4,2,0.5,2.3,1.4l0.5,1.7
					c0.1,0.4,0.2,0.8,0.4,1.1L-231,68.3z M-231.7,65.9c-0.9,0.2-1.9,0.7-1.7,1.6c0.2,0.6,0.6,0.7,1,0.6c0.6-0.2,0.9-0.7,0.9-1.1
					c0-0.1,0-0.2,0-0.3L-231.7,65.9z"/>
			</g>
		</g>
		<g>
			<g class="st7">
				<path d="M-269.2,18.4c-0.3,0.2-0.9,0.4-1.8,0.4c-1.9,0.1-3.4-1-3.5-3.2c-0.1-2.1,1.2-3.6,3.3-3.7c0.8,0,1.4,0.1,1.6,0.2
					l-0.2,0.7c-0.3-0.1-0.8-0.2-1.4-0.2c-1.6,0.1-2.6,1.2-2.5,2.9c0.1,1.6,1.1,2.6,2.7,2.6c0.5,0,1.1-0.2,1.4-0.4L-269.2,18.4z"/>
				<path d="M-265.5,18.4l-0.1-0.6l0,0c-0.2,0.4-0.7,0.8-1.4,0.8c-1,0.1-1.5-0.6-1.5-1.3c-0.1-1.2,0.9-1.9,2.8-2l0-0.1
					c0-0.4-0.2-1.1-1.2-1.1c-0.4,0-0.9,0.2-1.2,0.4l-0.2-0.6c0.4-0.3,1-0.5,1.6-0.5c1.5-0.1,1.9,0.9,1.9,1.9l0.1,1.8
					c0,0.4,0.1,0.8,0.1,1.2L-265.5,18.4z M-265.7,15.9c-1,0-2,0.3-2,1.2c0,0.6,0.4,0.8,0.9,0.8c0.6,0,1-0.5,1.1-0.9
					c0-0.1,0-0.2,0-0.3L-265.7,15.9z"/>
				<path d="M-263.5,14.8c0-0.5-0.1-0.9-0.1-1.3l0.8,0l0.1,0.8l0,0c0.2-0.5,0.7-0.9,1.5-1c0.7,0,1.2,0.3,1.4,0.9l0,0
					c0.1-0.3,0.3-0.5,0.5-0.7c0.3-0.2,0.6-0.4,1-0.4c0.6,0,1.6,0.3,1.7,2l0.2,2.8l-0.9,0l-0.1-2.7c-0.1-0.9-0.4-1.5-1.1-1.4
					c-0.5,0-0.9,0.4-1,0.8c0,0.1-0.1,0.3,0,0.4l0.2,3l-0.9,0l-0.2-2.9c0-0.8-0.4-1.3-1.1-1.3c-0.5,0-0.9,0.5-1,0.9
					c0,0.1-0.1,0.3,0,0.4l0.2,2.9l-0.9,0L-263.5,14.8z"/>
				<path d="M-254.6,15.6c0.1,1.2,0.9,1.6,1.7,1.6c0.6,0,1-0.2,1.3-0.3l0.2,0.6c-0.3,0.2-0.8,0.4-1.6,0.4c-1.5,0.1-2.4-0.9-2.5-2.3
					c-0.1-1.5,0.7-2.7,2.1-2.7c1.6-0.1,2.1,1.3,2.1,2.2c0,0.2,0,0.3,0,0.4L-254.6,15.6z M-252.1,14.8c0-0.6-0.3-1.4-1.3-1.4
					c-0.9,0-1.2,0.9-1.3,1.5L-252.1,14.8z"/>
				<path d="M-250.2,14.2c0-0.6-0.1-1.1-0.1-1.5l0.8,0l0.1,0.9l0,0c0.2-0.7,0.7-1.1,1.3-1.1c0.1,0,0.2,0,0.2,0l0,0.8
					c-0.1,0-0.2,0-0.3,0c-0.6,0-1,0.5-1.1,1.2c0,0.1,0,0.3,0,0.4l0.1,2.6l-0.9,0L-250.2,14.2z"/>
				<path d="M-242.8,15.8c0,0.5,0.1,0.9,0.1,1.3l-0.8,0l-0.1-0.8l0,0c-0.2,0.4-0.7,0.9-1.5,1c-0.8,0-1.7-0.3-1.8-2l-0.2-2.8l0.9,0
					l0.1,2.7c0,0.9,0.4,1.5,1.2,1.5c0.6,0,1-0.5,1.1-0.9c0-0.1,0.1-0.3,0.1-0.5l-0.2-3l0.9,0L-242.8,15.8z M-243.7,10.3l-1.1,1.5
					l-0.6,0l0.8-1.5L-243.7,10.3z"/>
				<path d="M-241.4,13.6c0-0.5-0.1-0.9-0.1-1.3l0.8,0l0.1,0.8l0,0c0.2-0.5,0.7-0.9,1.5-1c0.7,0,1.7,0.3,1.8,2l0.2,2.9l-0.9,0
					l-0.2-2.8c0-0.8-0.4-1.4-1.2-1.4c-0.6,0-1,0.5-1.1,1c0,0.1,0,0.3,0,0.4l0.2,2.9l-0.9,0L-241.4,13.6z"/>
			</g>
		</g>
		<g>
			<g class="st7">
				<path d="M-278.8-41.9c-0.3,0.1-1,0.2-1.8,0c-1.9-0.3-3.1-1.7-2.7-3.9c0.3-2.1,2-3.3,4-2.9c0.8,0.1,1.3,0.4,1.5,0.6l-0.3,0.7
					c-0.3-0.2-0.7-0.4-1.3-0.5c-1.6-0.3-2.8,0.6-3,2.3c-0.3,1.6,0.5,2.8,2.1,3.1c0.5,0.1,1.1,0.1,1.5,0L-278.8-41.9z"/>
				<path d="M-273.1-43.2c-0.3,1.8-1.6,2.3-2.8,2.2c-1.3-0.2-2.1-1.3-1.9-2.8c0.3-1.6,1.5-2.4,2.8-2.1
					C-273.6-45.8-272.8-44.7-273.1-43.2z M-276.9-43.8c-0.2,1,0.3,1.9,1.1,2.1c0.8,0.1,1.6-0.5,1.8-1.6c0.1-0.8-0.1-1.9-1.1-2.1
					C-276.1-45.6-276.7-44.7-276.9-43.8z"/>
				<path d="M-272.3-41.5c0.2,0.2,0.7,0.5,1.1,0.5c0.6,0.1,1-0.2,1-0.6c0.1-0.4-0.1-0.7-0.7-1c-0.8-0.5-1.1-1-1-1.6
					c0.1-0.8,0.9-1.3,1.9-1.1c0.5,0.1,0.9,0.3,1.1,0.5l-0.3,0.6c-0.2-0.1-0.5-0.4-0.9-0.4c-0.5-0.1-0.8,0.2-0.9,0.5
					c-0.1,0.4,0.2,0.6,0.8,1c0.8,0.4,1.1,0.9,1,1.6c-0.1,0.8-0.9,1.3-2,1.1c-0.5-0.1-1-0.3-1.3-0.6L-272.3-41.5z"/>
				<path d="M-266.4-45.9l-0.2,1.4l1.2,0.2l-0.1,0.7l-1.2-0.2l-0.4,2.6c-0.1,0.6,0,1,0.5,1c0.2,0,0.4,0,0.5,0l-0.1,0.7
					c-0.2,0-0.5,0-0.8,0c-0.4-0.1-0.7-0.2-0.9-0.5c-0.2-0.3-0.2-0.7-0.1-1.3l0.4-2.6l-0.7-0.1l0.1-0.7l0.7,0.1l0.2-1.1L-266.4-45.9z
					"/>
				<path d="M-262.6-39l0-0.6l0,0c-0.3,0.3-0.9,0.6-1.6,0.5c-1-0.2-1.3-0.9-1.2-1.6c0.2-1.2,1.3-1.6,3.2-1.3l0-0.1
					c0.1-0.4,0.1-1.1-0.9-1.3c-0.4-0.1-0.9,0-1.3,0.2l-0.1-0.6c0.4-0.2,1-0.3,1.6-0.2c1.5,0.2,1.7,1.3,1.5,2.2l-0.3,1.8
					c-0.1,0.4-0.1,0.8-0.1,1.2L-262.6-39z M-262.3-41.4c-0.9-0.2-2-0.2-2.2,0.7c-0.1,0.6,0.2,0.9,0.7,1c0.6,0.1,1.1-0.2,1.3-0.6
					c0-0.1,0.1-0.2,0.1-0.3L-262.3-41.4z"/>
				<path d="M-253.1-44.6l-0.9,5.8c-0.1,0.4-0.1,0.9-0.2,1.2l-0.8-0.1l0.1-0.8l0,0c-0.4,0.5-1,0.8-1.8,0.7c-1.2-0.2-1.9-1.3-1.7-2.8
					c0.3-1.6,1.4-2.4,2.6-2.2c0.7,0.1,1.2,0.5,1.3,1l0,0l0.5-2.8L-253.1-44.6z M-254.6-40.6c0-0.1,0-0.3,0-0.4
					c0-0.6-0.4-1.1-1.1-1.2c-0.9-0.1-1.6,0.6-1.7,1.6c-0.2,1,0.2,1.9,1.1,2c0.6,0.1,1.2-0.2,1.4-0.8c0-0.1,0.1-0.2,0.1-0.4
					L-254.6-40.6z"/>
				<path d="M-251.9-39.5c-0.2,1.2,0.5,1.8,1.4,1.9c0.6,0.1,1,0.1,1.4,0l0.1,0.6c-0.3,0.1-0.9,0.2-1.6,0c-1.5-0.2-2.2-1.4-2-2.8
					c0.2-1.4,1.3-2.4,2.7-2.2c1.6,0.3,1.7,1.7,1.6,2.6c0,0.2-0.1,0.3-0.1,0.4L-251.9-39.5z M-249.3-39.7c0.1-0.5,0-1.4-1-1.6
					c-0.9-0.1-1.4,0.6-1.6,1.2L-249.3-39.7z"/>
				<path d="M-239.6-38.2c0.1-0.9,0.2-2.1,0.4-2.9l0,0c-0.4,0.7-0.8,1.5-1.2,2.4l-1.7,3l-0.6-0.1l-0.6-3.3c-0.2-1-0.3-1.9-0.3-2.7
					l0,0c-0.2,0.8-0.4,1.9-0.6,2.9l-0.6,2.8l-0.8-0.1l1.6-6.6l1.1,0.2l0.6,3.4c0.1,0.9,0.2,1.6,0.3,2.3l0,0c0.3-0.6,0.6-1.3,1.1-2.1
					l1.7-3l1.1,0.2l-0.7,6.7l-0.8-0.1L-239.6-38.2z"/>
				<path d="M-235.2-34.5l0-0.6l0,0c-0.3,0.3-0.9,0.6-1.6,0.5c-1-0.2-1.3-0.9-1.2-1.6c0.2-1.2,1.3-1.6,3.2-1.3l0-0.1
					c0.1-0.4,0.1-1.1-0.9-1.3c-0.4-0.1-0.9,0-1.3,0.2l-0.1-0.6c0.4-0.2,1-0.3,1.6-0.2c1.5,0.2,1.7,1.3,1.5,2.2l-0.3,1.8
					c-0.1,0.4-0.1,0.8-0.1,1.2L-235.2-34.5z M-234.9-37c-0.9-0.2-2-0.2-2.2,0.7c-0.1,0.6,0.2,0.9,0.7,1c0.6,0.1,1.1-0.2,1.3-0.6
					c0-0.1,0.1-0.2,0.1-0.3L-234.9-37z"/>
				<path d="M-232.5-37.4c0.1-0.6,0.2-1,0.2-1.5l0.8,0.1l-0.1,0.9l0,0c0.3-0.6,0.9-0.9,1.5-0.8c0.1,0,0.2,0,0.2,0.1l-0.1,0.8
					c-0.1,0-0.2-0.1-0.3-0.1c-0.6-0.1-1.1,0.3-1.3,0.9c0,0.1-0.1,0.3-0.1,0.4l-0.4,2.5l-0.9-0.1L-232.5-37.4z"/>
				<path d="M-229.7-33.6l0.7-4.1l-0.7-0.1l0.1-0.7l0.7,0.1l0-0.3c0.2-1.3,1.1-2,2.4-1.7c0.4,0.1,0.9,0.3,1.2,0.5l-0.4,0.6
					c-0.2-0.2-0.5-0.4-1-0.4c-0.9-0.2-1.3,0.4-1.4,1.2l0,0.2l2.8,0.5l-0.8,4.8l-0.9-0.1l0.7-4.1l-1.9-0.3l-0.7,4.1L-229.7-33.6z"/>
				<path d="M-223.5-39.8l0.9,0.1l-1.1,7l-0.9-0.1L-223.5-39.8z"/>
			</g>
		</g>
		<g>
			<g class="st7">
				<path d="M-249.5-102.3l-1.5,3.7c-0.6,1.4-0.2,2.2,0.7,2.6c0.9,0.4,1.8,0,2.3-1.4l1.5-3.7l0.8,0.3l-1.5,3.7
					c-0.8,1.9-2.1,2.3-3.4,1.8c-1.3-0.5-2-1.6-1.2-3.6l1.5-3.7L-249.5-102.3z"/>
				<path d="M-241.1-97c-0.1,0.3-0.3,0.7-0.5,1.2l-1,2.6c-0.4,1-0.9,1.6-1.5,1.8c-0.6,0.2-1.3,0.1-1.9-0.1c-0.5-0.2-1.1-0.6-1.4-1
					l0.5-0.5c0.2,0.3,0.6,0.7,1.2,0.9c0.8,0.3,1.6,0.1,2.1-1l0.2-0.5l0,0c-0.4,0.3-1,0.5-1.7,0.2c-1.1-0.4-1.5-1.7-1-3
					c0.6-1.5,1.9-2,3-1.6c0.8,0.3,1,0.9,1.1,1.3l0,0l0.3-0.7L-241.1-97z M-242.7-95.5c0.1-0.1,0.1-0.3,0.1-0.4
					c0-0.5-0.2-1.1-0.8-1.3c-0.8-0.3-1.6,0.1-2,1.2c-0.3,0.9-0.2,1.8,0.7,2.1c0.5,0.2,1.1,0.1,1.5-0.4c0.1-0.1,0.2-0.3,0.2-0.4
					L-242.7-95.5z"/>
				<path d="M-239.1-91l0.2-0.6l0,0c-0.4,0.3-1,0.4-1.6,0.1c-0.9-0.4-1.1-1.2-0.9-1.8c0.4-1.1,1.6-1.3,3.4-0.6l0-0.1
					c0.1-0.4,0.3-1.1-0.6-1.4c-0.4-0.2-0.9-0.2-1.3-0.1l0-0.6c0.5-0.1,1.1,0,1.6,0.2c1.4,0.5,1.3,1.6,1,2.5l-0.7,1.7
					c-0.2,0.4-0.3,0.8-0.4,1.1L-239.1-91z M-238.3-93.3c-0.9-0.4-2-0.6-2.3,0.3c-0.2,0.5,0,0.9,0.5,1.1c0.6,0.2,1.1,0,1.4-0.3
					c0.1-0.1,0.1-0.2,0.1-0.2L-238.3-93.3z"/>
				<path d="M-235.8-93.4c0.2-0.5,0.3-0.8,0.4-1.2l0.7,0.3l-0.2,0.8l0,0c0.4-0.3,1.1-0.5,1.8-0.2c0.6,0.2,1.4,1,0.8,2.5l-1.1,2.7
					l-0.8-0.3l1-2.6c0.3-0.7,0.3-1.4-0.5-1.7c-0.5-0.2-1.1,0-1.4,0.4c-0.1,0.1-0.2,0.2-0.2,0.4l-1.1,2.7l-0.8-0.3L-235.8-93.4z"/>
				<path d="M-225.5-93.2l-2.2,5.4c-0.2,0.4-0.3,0.9-0.4,1.2l-0.7-0.3l0.3-0.8l0,0c-0.5,0.4-1.1,0.6-1.9,0.3c-1.1-0.4-1.6-1.7-1-3
					c0.6-1.5,1.9-2,3-1.6c0.7,0.3,1,0.8,1.1,1.2l0,0l1.1-2.7L-225.5-93.2z M-227.8-89.6c0-0.1,0.1-0.2,0.1-0.4
					c0.1-0.6-0.2-1.2-0.8-1.4c-0.8-0.3-1.6,0.2-2,1.2c-0.4,0.9-0.2,1.9,0.7,2.2c0.5,0.2,1.2,0,1.6-0.5c0.1-0.1,0.1-0.2,0.2-0.3
					L-227.8-89.6z"/>
				<path d="M-224.2-85l0.2-0.6l0,0c-0.4,0.3-1,0.4-1.6,0.1c-0.9-0.4-1.1-1.2-0.9-1.8c0.4-1.1,1.6-1.3,3.4-0.6l0-0.1
					c0.1-0.4,0.3-1.1-0.6-1.4c-0.4-0.2-0.9-0.2-1.3-0.1l0-0.6c0.5-0.1,1.1,0,1.6,0.2c1.4,0.5,1.3,1.6,1,2.5l-0.7,1.7
					c-0.2,0.4-0.3,0.8-0.4,1.1L-224.2-85z M-223.4-87.4c-0.9-0.4-2-0.6-2.3,0.3c-0.2,0.5,0,0.9,0.5,1.1c0.6,0.2,1.1,0,1.4-0.3
					c0.1-0.1,0.1-0.2,0.1-0.2L-223.4-87.4z"/>
			</g>
		</g>
		<g>
			<g class="st7">
				<path d="M-216.1-149.8l-3.8,5.6l-0.7-0.5l3.8-5.6L-216.1-149.8z"/>
				<path d="M-216.7-146.3c0.3-0.4,0.5-0.8,0.7-1.1l0.6,0.4l-0.4,0.7l0,0c0.5-0.2,1.2-0.3,1.8,0.1c0.5,0.4,1.2,1.3,0.3,2.7l-1.6,2.4
					l-0.7-0.5l1.6-2.3c0.4-0.6,0.6-1.4-0.1-1.8c-0.5-0.3-1.1-0.2-1.5,0.1c-0.1,0.1-0.2,0.2-0.3,0.3l-1.6,2.4l-0.7-0.5L-216.7-146.3z
					"/>
				<path d="M-206.6-143.8l-3.3,4.8c-0.2,0.4-0.5,0.8-0.7,1.1l-0.6-0.4l0.4-0.7l0,0c-0.5,0.3-1.2,0.3-1.9-0.1c-1-0.7-1.2-2-0.3-3.2
					c0.9-1.3,2.3-1.6,3.3-0.9c0.6,0.4,0.8,1,0.8,1.4l0,0l1.6-2.4L-206.6-143.8z M-209.7-140.8c0.1-0.1,0.1-0.2,0.2-0.3
					c0.2-0.5,0.1-1.2-0.5-1.6c-0.8-0.5-1.7-0.2-2.2,0.7c-0.6,0.8-0.6,1.8,0.2,2.3c0.5,0.3,1.2,0.3,1.7-0.2c0.1-0.1,0.2-0.2,0.2-0.3
					L-209.7-140.8z"/>
				<path d="M-209.4-137.1l2.7-4l0.7,0.5l-2.7,4L-209.4-137.1z M-205.1-141.7c-0.2,0.2-0.5,0.3-0.8,0.1c-0.3-0.2-0.3-0.5-0.1-0.8
					c0.2-0.2,0.5-0.3,0.8-0.1C-205-142.3-204.9-142-205.1-141.7z"/>
				<path d="M-205.2-134.3l0.3-0.5l0,0c-0.4,0.2-1.1,0.2-1.6-0.2c-0.8-0.5-0.8-1.4-0.4-2c0.7-1,1.9-0.9,3.4,0.1l0.1-0.1
					c0.2-0.3,0.5-1-0.3-1.5c-0.4-0.3-0.8-0.4-1.2-0.4l0.2-0.6c0.5,0,1.1,0.2,1.6,0.5c1.2,0.8,1,1.9,0.4,2.7l-1,1.5
					c-0.2,0.3-0.4,0.7-0.6,1L-205.2-134.3z M-204-136.4c-0.8-0.6-1.8-1-2.3-0.2c-0.3,0.5-0.2,0.9,0.2,1.2c0.5,0.4,1.1,0.2,1.4,0
					c0.1-0.1,0.1-0.1,0.2-0.2L-204-136.4z"/>
			</g>
		</g>
		<g>
			<g class="st7">
				<path d="M-178.3-192.2l0.6,0.6l-3.3,3.1c-1.3,1.2-2.3,1-3.1,0.1c-0.2-0.2-0.4-0.6-0.5-0.8l0.6-0.4c0.1,0.2,0.2,0.4,0.4,0.6
					c0.5,0.6,1.1,0.7,2.1-0.3L-178.3-192.2z"/>
				<path d="M-179.8-184l0.4-0.5l0,0c-0.5,0.1-1.1-0.1-1.5-0.6c-0.7-0.7-0.5-1.5,0-2c0.8-0.8,2-0.5,3.3,0.9l0.1-0.1
					c0.3-0.3,0.7-0.9,0.1-1.6c-0.3-0.3-0.7-0.6-1.1-0.7l0.3-0.5c0.5,0.1,1,0.4,1.4,0.9c1,1.1,0.5,2-0.2,2.7l-1.3,1.2
					c-0.3,0.3-0.6,0.6-0.8,0.8L-179.8-184z M-178.1-185.8c-0.6-0.7-1.5-1.4-2.2-0.7c-0.4,0.4-0.4,0.9,0,1.2c0.4,0.5,1,0.5,1.4,0.3
					c0.1,0,0.2-0.1,0.2-0.2L-178.1-185.8z"/>
				<path d="M-174.6-185.5l-1.3,2.6c-0.2,0.4-0.4,0.8-0.6,1.1l0,0c0.4-0.2,0.8-0.4,1.2-0.6l2.6-1.2l0.6,0.7l-4.8,1.9l-0.6-0.6
					l2.2-4.7L-174.6-185.5z"/>
				<path d="M-173.2-177l0.4-0.5l0,0c-0.5,0.1-1.1-0.1-1.5-0.6c-0.7-0.7-0.5-1.5,0-2c0.8-0.8,2-0.5,3.3,0.9l0.1-0.1
					c0.3-0.3,0.7-0.9,0.1-1.6c-0.3-0.3-0.7-0.6-1.1-0.7l0.3-0.5c0.5,0.1,1,0.4,1.4,0.9c1,1.1,0.5,2-0.2,2.7l-1.3,1.2
					c-0.3,0.3-0.6,0.6-0.8,0.8L-173.2-177z M-171.5-178.8c-0.6-0.7-1.5-1.4-2.2-0.7c-0.4,0.4-0.4,0.9,0,1.2c0.4,0.5,1,0.5,1.4,0.3
					c0.1,0,0.2-0.1,0.2-0.2L-171.5-178.8z"/>
			</g>
		</g>
		<g>
			<g class="st7">
				<path d="M-143.9-233.5c0,0.5,0.1,1,0.4,1.6c0.5,0.8,1.1,1,1.7,0.6c0.5-0.3,0.7-0.8,0.5-1.8c-0.2-1.1-0.1-2,0.7-2.5
					c0.9-0.5,2-0.2,2.7,0.9c0.4,0.6,0.5,1.1,0.5,1.4l-0.7,0.2c0-0.2-0.1-0.7-0.4-1.3c-0.5-0.8-1.1-0.8-1.5-0.6
					c-0.5,0.3-0.6,0.8-0.4,1.8c0.2,1.2,0,2-0.8,2.5c-0.9,0.5-2.1,0.3-2.9-1c-0.3-0.6-0.5-1.3-0.5-1.7L-143.9-233.5z"/>
				<path d="M-139.4-230.3c0.5-0.3,0.9-0.6,1.3-0.8l0.4,0.7l-0.8,0.5l0,0c0.7-0.1,1.3,0.1,1.6,0.6c0,0.1,0.1,0.1,0.1,0.2l-0.7,0.4
					c0-0.1-0.1-0.2-0.1-0.3c-0.3-0.5-0.9-0.7-1.6-0.4c-0.1,0-0.2,0.1-0.4,0.2l-2.2,1.3l-0.5-0.7L-139.4-230.3z"/>
				<path d="M-140.5-225.8l4.1-2.5l0.5,0.8l-4.1,2.5L-140.5-225.8z M-134.7-228.2c-0.3,0.2-0.6,0.1-0.8-0.2
					c-0.2-0.3-0.1-0.6,0.2-0.7c0.3-0.2,0.6-0.1,0.8,0.2C-134.4-228.6-134.5-228.3-134.7-228.2z"/>
				<path d="M-132.5-225.4l0.5,0.7l-5.1,3.1l1.5,2.5l-0.6,0.4l-1.9-3.2L-132.5-225.4z"/>
				<path d="M-134.4-215.6l0.5-0.4l0,0c-0.5,0-1-0.3-1.4-0.9c-0.5-0.8-0.2-1.6,0.4-2c1-0.6,2.1,0,3,1.6l0.1-0.1
					c0.3-0.2,0.9-0.7,0.4-1.5c-0.2-0.4-0.6-0.7-1-0.9l0.4-0.5c0.4,0.2,0.9,0.6,1.2,1.1c0.8,1.3,0.1,2.1-0.7,2.6l-1.5,0.9
					c-0.4,0.2-0.7,0.4-1,0.7L-134.4-215.6z M-132.4-217c-0.5-0.8-1.2-1.7-2-1.2c-0.5,0.3-0.5,0.8-0.3,1.1c0.3,0.5,0.9,0.7,1.3,0.6
					c0.1,0,0.2-0.1,0.3-0.1L-132.4-217z"/>
				<path d="M-130.3-215.6c0.4-0.3,0.8-0.5,1.1-0.7l0.4,0.7l-0.7,0.5l0,0c0.5,0,1.2,0.2,1.6,0.9c0.3,0.6,0.5,1.7-0.9,2.5l-2.5,1.5
					l-0.5-0.7l2.4-1.4c0.7-0.4,1.1-1,0.7-1.7c-0.3-0.5-0.9-0.7-1.4-0.5c-0.1,0-0.3,0.1-0.4,0.2l-2.5,1.5l-0.5-0.8L-130.3-215.6z"/>
				<path d="M-127.8-209.7L-127.8-209.7c0.2,0,0.5,0.1,0.7,0.1l2.2,0.4l0.5,0.9l-2.7-0.6l-1.3,3.3l-0.6-0.9l1.1-2.6l-0.7-0.1
					l-1.6,0.9l-0.5-0.7l6.1-3.7l0.5,0.7L-127.8-209.7z"/>
				<path d="M-126.7-202.7l0.5-0.4l0,0c-0.5,0-1-0.3-1.4-0.9c-0.5-0.8-0.2-1.6,0.4-2c1-0.6,2.1,0,3,1.6l0.1-0.1
					c0.3-0.2,0.9-0.7,0.4-1.5c-0.2-0.4-0.6-0.7-1-0.9l0.4-0.5c0.4,0.2,0.9,0.6,1.2,1.1c0.8,1.3,0.1,2.1-0.7,2.6l-1.5,0.9
					c-0.4,0.2-0.7,0.4-1,0.7L-126.7-202.7z M-124.6-204.1c-0.5-0.8-1.2-1.7-2-1.2c-0.5,0.3-0.5,0.8-0.3,1.1c0.3,0.5,0.9,0.7,1.3,0.6
					c0.1,0,0.2-0.1,0.3-0.1L-124.6-204.1z"/>
			</g>
		</g>
		<g>
			<g class="st7">
				<path d="M-89.6-256.8c-0.1,0.4-0.1,1,0.1,1.6c0.3,0.8,0.9,1.2,1.5,1c0.6-0.2,0.8-0.7,0.9-1.6c0-1.2,0.3-2,1.2-2.3
					c1-0.3,2,0.2,2.4,1.5c0.2,0.6,0.2,1.2,0.2,1.5l-0.8,0c0.1-0.2,0.1-0.7-0.1-1.3c-0.3-0.9-0.9-1-1.4-0.9c-0.6,0.2-0.8,0.7-0.8,1.7
					c-0.1,1.2-0.4,1.9-1.3,2.3c-1,0.3-2.1-0.1-2.6-1.6c-0.2-0.6-0.2-1.4-0.1-1.8L-89.6-256.8z"/>
				<path d="M-86.5-248.3c-0.5,0.2-0.9,0.3-1.2,0.5l-0.2-0.7l0.7-0.3l0,0c-0.4-0.1-1.1-0.4-1.4-1.2c-0.2-0.7-0.1-1.7,1.5-2.3
					l2.7-0.9l0.3,0.8l-2.5,0.9c-0.9,0.3-1.4,0.8-1.1,1.5c0.2,0.6,0.7,0.8,1.1,0.8c0.1,0,0.3,0,0.5-0.1l2.8-0.9l0.3,0.8L-86.5-248.3z
					"/>
				<path d="M-83.9-247.6c0.5-0.2,0.9-0.3,1.2-0.5l0.2,0.7l-0.7,0.3l0,0c0.5,0.1,1.1,0.4,1.3,1.2c0.2,0.6,0,1.2-0.5,1.6l0,0
					c0.3,0.1,0.6,0.2,0.8,0.3c0.3,0.2,0.5,0.5,0.7,0.9c0.2,0.6,0.1,1.6-1.5,2.2l-2.7,0.9l-0.3-0.8l2.6-0.9c0.9-0.3,1.3-0.8,1.1-1.5
					c-0.2-0.5-0.6-0.7-1.1-0.7c-0.1,0-0.3,0-0.4,0.1l-2.8,1l-0.3-0.8l2.7-0.9c0.7-0.2,1.1-0.7,0.9-1.4c-0.2-0.5-0.7-0.8-1.2-0.8
					c-0.1,0-0.3,0-0.4,0.1l-2.8,0.9l-0.3-0.8L-83.9-247.6z"/>
				<path d="M-83.8-236.1l0.6-0.3l0,0c-0.4-0.1-0.9-0.5-1.2-1.2c-0.3-0.9,0.2-1.6,0.8-1.8c1.1-0.4,2,0.4,2.6,2.2l0.1,0
					c0.4-0.1,1-0.5,0.7-1.4c-0.1-0.4-0.4-0.8-0.7-1.1l0.5-0.4c0.4,0.3,0.7,0.8,0.9,1.4c0.5,1.4-0.4,2.1-1.3,2.4l-1.7,0.6
					c-0.4,0.1-0.8,0.3-1.1,0.4L-83.8-236.1z M-81.5-237c-0.3-0.9-0.8-1.9-1.7-1.6c-0.5,0.2-0.7,0.6-0.5,1c0.2,0.6,0.7,0.9,1.1,0.9
					c0.1,0,0.2,0,0.3,0L-81.5-237z"/>
				<path d="M-76.8-235l-1.3,0.4l0.4,1.2l-0.6,0.2l-0.4-1.2l-2.5,0.8c-0.6,0.2-0.8,0.5-0.7,0.9c0.1,0.2,0.2,0.4,0.2,0.5l-0.6,0.3
					c-0.1-0.1-0.3-0.4-0.4-0.7c-0.1-0.4-0.1-0.7,0-1c0.2-0.3,0.5-0.5,1.1-0.7l2.5-0.8l-0.2-0.7l0.6-0.2l0.2,0.7l1.1-0.4L-76.8-235z"
					/>
				<path d="M-78.9-232c0.5-0.2,1-0.3,1.4-0.5l0.2,0.7l-0.9,0.3l0,0c0.7,0,1.2,0.4,1.4,0.9c0,0.1,0,0.2,0.1,0.2l-0.8,0.3
					c0-0.1,0-0.2-0.1-0.3c-0.2-0.6-0.8-0.9-1.4-0.8c-0.1,0-0.3,0.1-0.4,0.1l-2.4,0.8l-0.3-0.8L-78.9-232z"/>
				<path d="M-80.1-225.3l0.6-0.3l0,0c-0.4-0.1-0.9-0.5-1.2-1.2c-0.3-0.9,0.2-1.6,0.8-1.8c1.1-0.4,2.1,0.4,2.6,2.2l0.1,0
					c0.4-0.1,1-0.5,0.7-1.4c-0.1-0.4-0.4-0.8-0.7-1.1l0.5-0.4c0.4,0.3,0.7,0.8,0.9,1.4c0.5,1.4-0.4,2.1-1.3,2.4l-1.7,0.6
					c-0.4,0.1-0.8,0.3-1.1,0.4L-80.1-225.3z M-77.8-226.2c-0.3-0.9-0.8-1.9-1.7-1.6c-0.5,0.2-0.7,0.6-0.5,1c0.2,0.6,0.7,0.9,1.1,0.9
					c0.1,0,0.2,0,0.3,0L-77.8-226.2z"/>
			</g>
		</g>
		<g>
			<g class="st7">
				<path d="M-33.1-267.7l6.5-2.9l0.1,0.9l-3.2,1.4c-0.9,0.4-1.7,0.7-2.4,1l0,0c0.8,0.1,1.7,0.3,2.6,0.5l3.4,0.8l0.1,0.9l-7-1.7
					L-33.1-267.7z"/>
				<path d="M-32.7-263.7l4.8-0.5l0.1,0.9l-4.8,0.5L-32.7-263.7z M-26.4-263.4c-0.3,0-0.6-0.1-0.6-0.5c0-0.3,0.2-0.6,0.5-0.6
					c0.3,0,0.6,0.2,0.6,0.5C-25.9-263.7-26.1-263.4-26.4-263.4z"/>
				<path d="M-30.2-261.1c-1.2,0.1-1.6,0.9-1.5,1.8c0.1,0.6,0.2,1,0.4,1.3l-0.6,0.2c-0.2-0.3-0.4-0.8-0.5-1.6
					c-0.2-1.5,0.7-2.5,2.2-2.6c1.5-0.2,2.7,0.6,2.8,2c0.2,1.6-1.2,2.1-2,2.2c-0.2,0-0.3,0-0.4,0L-30.2-261.1z M-29.2-258.6
					c0.6-0.1,1.4-0.4,1.3-1.4c-0.1-0.9-0.9-1.2-1.6-1.2L-29.2-258.6z"/>
				<path d="M-25.6-256l-1.4,0.2l0.1,1.3l-0.7,0.1l-0.1-1.3l-2.6,0.3c-0.6,0.1-0.9,0.3-0.9,0.8c0,0.2,0.1,0.4,0.1,0.5l-0.7,0.1
					c-0.1-0.2-0.2-0.4-0.2-0.8c0-0.4,0.1-0.7,0.3-1c0.2-0.3,0.7-0.4,1.2-0.5l2.6-0.3l-0.1-0.7l0.7-0.1l0.1,0.7l1.2-0.1L-25.6-256z"
					/>
				<path d="M-28-253.5c0.5-0.1,0.9-0.1,1.3-0.2l0.1,0.8l-0.8,0.1l0,0c0.5,0.2,1,0.6,1,1.4c0.1,0.7-0.3,1.2-0.8,1.5l0,0
					c0.3,0.1,0.5,0.3,0.7,0.5c0.3,0.3,0.4,0.6,0.5,1c0.1,0.6-0.2,1.6-1.9,1.8l-2.8,0.3l-0.1-0.9l2.7-0.3c0.9-0.1,1.4-0.5,1.4-1.2
					c-0.1-0.5-0.5-0.8-0.9-1c-0.1,0-0.3,0-0.4,0l-3,0.3l-0.1-0.9l2.9-0.3c0.8-0.1,1.3-0.5,1.2-1.1c-0.1-0.5-0.5-0.9-1-1
					c-0.1,0-0.3,0-0.4,0l-2.9,0.3l-0.1-0.9L-28-253.5z"/>
				<path d="M-30.4-242.1l0.6-0.1l0,0c-0.4-0.2-0.8-0.7-0.9-1.4c-0.1-1,0.5-1.5,1.2-1.6c1.2-0.1,1.9,0.8,2.1,2.7l0.1,0
					c0.4,0,1.1-0.2,1-1.2c0-0.4-0.2-0.9-0.5-1.2l0.6-0.3c0.3,0.4,0.5,0.9,0.6,1.5c0.2,1.5-0.8,1.9-1.8,2l-1.8,0.2
					c-0.4,0-0.8,0.1-1.1,0.2L-30.4-242.1z M-27.9-242.6c-0.1-0.9-0.4-2-1.3-1.9c-0.6,0.1-0.8,0.5-0.7,0.9c0.1,0.6,0.5,1,0.9,1.1
					c0.1,0,0.2,0,0.3,0L-27.9-242.6z"/>
				<path d="M-26.6-240.4c0.5-0.1,0.9-0.1,1.3-0.2l0.1,0.8l-0.8,0.1l0,0c0.5,0.2,1,0.7,1.1,1.5c0.1,0.7-0.2,1.7-1.9,1.9l-2.9,0.3
					l-0.1-0.9l2.8-0.3c0.8-0.1,1.4-0.4,1.3-1.3c-0.1-0.6-0.5-1-1-1.1c-0.1,0-0.3,0-0.4,0l-2.9,0.3l-0.1-0.9L-26.6-240.4z"/>
			</g>
		</g>
	</g>
</g>
<g id="Capa_2">
</g>
</svg>
